/* XPM */
static char *_c857bd0d08a4c85ee53001c63ac5b6bZtA8aIawZIcTXkP4[] = {
/* columns rows colors chars-per-pixel */
"48 48 213 2 ",
"   c None",
".  c #3E3C2F",
"X  c #2E3B27",
"o  c #4E2C29",
"O  c #472825",
"+  c #582D27",
"@  c #443B2C",
"#  c #54312E",
"$  c #5F312F",
"%  c #5C3726",
"&  c #463B36",
"*  c #4C3D38",
"=  c #5E3632",
"-  c #5E3A35",
";  c #63332C",
":  c #603A2C",
">  c #633533",
",  c #6C3731",
"<  c #663A35",
"1  c #6B3B37",
"2  c #6D3C39",
"3  c #673F3A",
"4  c #723A35",
"5  c #753E3D",
"6  c #1A4E26",
"7  c #27542E",
"8  c #394B34",
"9  c #285932",
"0  c #345532",
"q  c #2C472A",
"w  c #32783B",
"e  c #46462C",
"r  c #4F502C",
"t  c #4C423E",
"y  c #53443D",
"u  c #594537",
"i  c #4D5334",
"p  c #565733",
"a  c #734A2E",
"s  c #63423B",
"d  c #674639",
"f  c #75413D",
"g  c #7A433E",
"h  c #675438",
"j  c #785836",
"k  c #6A442A",
"l  c #47683B",
"z  c #5E6439",
"x  c #57743D",
"c  c #4A723E",
"v  c #6A613F",
"b  c #79683F",
"n  c #357D40",
"m  c #4E4540",
"M  c #544740",
"N  c #554A44",
"B  c #5B4C45",
"V  c #5B4E48",
"C  c #5E514A",
"Z  c #565A4B",
"A  c #575853",
"S  c #604F47",
"D  c #7C4441",
"F  c #7C4844",
"G  c #64544C",
"H  c #69574F",
"J  c #6A584F",
"K  c #795648",
"L  c #6C5B53",
"P  c #695750",
"I  c #715E56",
"U  c #785B56",
"Y  c #487144",
"T  c #696B48",
"R  c #776746",
"E  c #687947",
"W  c #736057",
"Q  c #75635A",
"!  c #7A665D",
"~  c #7D685F",
"^  c #766C5E",
"/  c #6F7057",
"(  c #646464",
")  c #6C6C6C",
"_  c #7E6961",
"`  c #727272",
"'  c #797979",
"]  c #814038",
"[  c #875C38",
"{  c #97553A",
"}  c #A45B3E",
"|  c #99653D",
" . c #A2603B",
".. c #834A45",
"X. c #8A4D46",
"o. c #8C4E48",
"O. c #824B46",
"+. c #914F4A",
"@. c #8D514A",
"#. c #845C4B",
"$. c #865749",
"%. c #94544D",
"&. c #955C4E",
"*. c #9E594F",
"=. c #9B574F",
"-. c #8A5B55",
";. c #875751",
":. c #925651",
">. c #9C5750",
",. c #9C5951",
"<. c #905851",
"1. c #AC5E41",
"2. c #A05951",
"3. c #9D6748",
"4. c #8E7C4C",
"5. c #8A7C46",
"6. c #8E6054",
"7. c #9E6451",
"8. c #927F48",
"9. c #A36541",
"0. c #AE6F48",
"q. c #BD754B",
"w. c #BB7B4D",
"e. c #A26552",
"r. c #A77044",
"t. c #836D63",
"y. c #896F65",
"u. c #867067",
"i. c #887167",
"p. c #867168",
"a. c #8D7369",
"s. c #8E756B",
"d. c #8D766D",
"f. c #8A736A",
"g. c #8C786E",
"h. c #91776D",
"j. c #91756B",
"k. c #91786E",
"l. c #927B70",
"z. c #967B71",
"x. c #957D72",
"c. c #967D73",
"v. c #9A7F75",
"b. c #C06E4B",
"n. c #D4724D",
"m. c #C87B51",
"M. c #CC734E",
"N. c #F07F57",
"B. c #E57C57",
"V. c #0F8D42",
"C. c #108940",
"Z. c #3A884B",
"A. c #2F964F",
"S. c #19A34D",
"D. c #0DAE52",
"F. c #3BA553",
"G. c #2EAB54",
"H. c #498A4C",
"J. c #59884A",
"K. c #46944D",
"L. c #409050",
"P. c #5A9B54",
"I. c #57924D",
"U. c #62894B",
"Y. c #7C884D",
"T. c #6E914D",
"R. c #6A8E50",
"E. c #699754",
"W. c #799354",
"Q. c #40A250",
"!. c #5CA656",
"~. c #7CA65A",
"^. c #7CB060",
"/. c #919455",
"(. c #8B9053",
"). c #B8995A",
"_. c #A39A56",
"`. c #86A65B",
"'. c #9AA55C",
"]. c #88B05F",
"[. c #A9A85E",
"{. c #978075",
"}. c #9B8277",
"|. c #9D847A",
" X c #A1877C",
".X c #9CAA60",
"XX c #8EB466",
"oX c #B7B667",
"OX c #A4B167",
"+X c #CB8656",
"@X c #DB8358",
"#X c #D18D5B",
"$X c #D48459",
"%X c #C7975A",
"&X c #D99957",
"*X c #ED805A",
"=X c #F18057",
"-X c #C5A45E",
";X c #D0A05C",
":X c #E5A45F",
">X c #D39B60",
",X c #DFAD61",
"<X c #D3A967",
"1X c #CABA69",
"2X c #D3BC6E",
"3X c #CABE73",
"4X c #E1AC67",
"5X c #E5BB6C",
"6X c #CEC170",
"7X c #EFC66E",
"8X c #F2D275",
"9X c #E5CB70",
"0X c #A68D82",
/* pixels */
"                                                                                                ",
"                                      &                                                         ",
"                                    & * t                                                       ",
"                                    y y y *                                                     ",
"                                  y N y B M                                                     ",
"                                y B V B N N y                                                   ",
"                                M S G V G G G t                                                 ",
"                              N G G G G G G S B                                                 ",
"                            M V H L L G G L L G N                                               ",
"                            B H L L L L L I I P V                                               ",
"                          B G I Q ! W I L W ! L L B                       & t                   ",
"                          G I Q Q ! ! W Q ! t.! W G M                     M M                   ",
"                        G L _ ~ t.~ ~ ~ Q Q ! _ W W G                     V G                   ",
"                      V L I ~ ~ f.t.t._ ~ _ p.g._ _ W V                 V L L L                 ",
"                      L ! p.u.i.f.t.s.i.t._ t.u.t.! ! J                 L ! Q Q                 ",
"                    G Q ! i.t.x.x.f.s.t.t.t.d.x.k.t.f.! G             B W ~ ~ u._               ",
"                  C Q ~ f.d.f.k.h.s.{.h.d.a.d.}.k.y.t._ L V           L p.f.t.i.u.              ",
"                  L t.t.x.l.z.|.x.k.c.h.h.a.k.l.}.k.t.d.! L           ! k.l.h.x.l.              ",
"                G Q t.d.l.s.}. Xv.x.}.k.z.v.{.|.0X|.d.l.p.Q G       G ! a.a.t.a.z.p.            ",
"                Q f.d. X|.z.}.v.j.c. Xz.z.z.s.z.v.|.k.s.d.~ I C       s $.<.<.<.F               ",
"              t * s < 2 D ..1 ..%.%.=.5 %.%.%.@.< ..g f - 3 u G L   W s O...X.X.1               ",
"                o < 5 f X.@.5 o.,.2.2.D *.,.>.>.5 X.X.F 1 1 d -.-.-.6.;.O.D ....1               ",
"                  = D < o.@.f X.>.,.>.D *.,.=.>.5 X.X.2 f < g >.>.,.,.O.8 8 8 8 X               ",
"                  # 3 < ..U ..D %.-.=.D =.-.@.+.g ;.F > s = @.&.&.&.&.$.T / E / i               ",
"                    = 2 f 2 X.5 %.D =.D %.D :.g ..1 F > # 4..XoX`.oX'./.v R T R u               ",
"                    O > $ f D 2 X.g o.5 %.f o.2 ..2 > = @ Y L.H.A.H.Z.0 9 7 9 9 6               ",
"                      o > 1 2 1 g 5 ..2 X.2 X.$ 1 2 $ o               % [ | 3.| a               ",
"                      O ; + 4 ; , 4 g > ] 4 , , 4 + ; O               # 2 g ..g 1               ",
"                      a } q.n.+X#XN.@X%X*XN.%Xm.n.w.1.k                                         ",
"                      [ 9.&Xq.,X5X@X4X8X#X$X7X4Xq.:X| j                                         ",
"                      i l 4.U./.'.R.`.[.~.T._.`.J.8.l e                                         ",
"                      b x %XH.[.oXF.^.1X!.F.1X.XH.;Xx j                                         ",
"                      p c ).I.oX1XP.OX9X].!.5XoXI.%Xw r                                         ",
"                      h z 5.J.Y.W.L.P./.K.K.(.T.J.5.z h                                         ",
"                      j 9.&Xb.,X5X$X4X8X>X$X7X4Xb.:X .a                                         ",
"                      : { 0.n.+X#X=X@X<XB.=X%Xm.n.r.} %                                         ",
"                      e h u #.K #.7.e.#.e.7.K 6.$.y K @                                         ",
"                      7 Y.n -XU.E.2X.XH.1X2XZ.W.-Xw (.6                                         ",
"                      0 E C.J.S.D.E.G.D.Q.E.D.S.U.V.E 7                                         ",
"                      . R Y ).J.P.6XXXF.oX3XZ.W.).l R .                                         ",
"                        (     A N L / A ^ Q Z Q     ( (                                         ",
"                        `         A ) ) ` (         ` )                                         ",
"                        `         ( ` ` ' (         ` )                                         ",
"                        `         ( ` ` ' (         ` )                                         ",
"                        `         ( ` ` ' (         ` )                                         ",
"                        `         ( ` ` ' (         ` )                                         ",
"                                    ) ` '                                                       ",
"                                      `                                                         "
};