/* XPM */
static char *a35e6792eba4428b8b985705af6473bf3mJTB83oA14EXFuA[] = {
/* columns rows colors chars-per-pixel */
"48 48 158 2 ",
"   c None",
".  c #251F1E",
"X  c #25211E",
"o  c #242422",
"O  c #232826",
"+  c #2F2C27",
"@  c #2A2628",
"#  c #2C2D2B",
"$  c #312C2C",
"%  c #32322F",
"&  c #2E3533",
"*  c #2F3837",
"=  c #313231",
"-  c #393937",
";  c #343D3C",
":  c #3E3D3C",
">  c #5A2421",
",  c #6A2F2D",
"<  c #662424",
"1  c #7F3635",
"2  c #36413E",
"3  c #40403F",
"4  c #374140",
"5  c #3A4542",
"6  c #374946",
"7  c #3D4B49",
"8  c #464645",
"9  c #484947",
"0  c #4D4D4C",
"q  c #504F4F",
"w  c #4F504F",
"e  c #51514F",
"r  c #425451",
"t  c #4F5050",
"y  c #475955",
"u  c #495F59",
"i  c #525351",
"p  c #585856",
"a  c #5D5D5C",
"s  c #674542",
"d  c #6D4443",
"f  c #754848",
"g  c #566D67",
"h  c #566C68",
"j  c #57726D",
"k  c #5B706D",
"l  c #5A7571",
"z  c #5E7B76",
"x  c #5E7F78",
"c  c #656565",
"v  c #6A6A67",
"b  c #6C6D6B",
"n  c #7D6969",
"m  c #6F716F",
"M  c #70716E",
"N  c #607B76",
"B  c #627F7A",
"V  c #737473",
"C  c #787776",
"Z  c #797977",
"A  c #7A7679",
"S  c #777879",
"D  c #7C7C7B",
"F  c #8F2125",
"G  c #912422",
"H  c #98272B",
"J  c #9A2323",
"K  c #AA2221",
"L  c #BF2122",
"P  c #B52224",
"I  c #D21F1F",
"U  c #CB211F",
"Y  c #D5211F",
"T  c #C22321",
"R  c #CE2221",
"E  c #D52223",
"W  c #D82125",
"Q  c #5F817A",
"!  c #62827C",
"~  c #678783",
"^  c #678881",
"/  c #6A8B85",
"(  c #6D8F89",
")  c #6E948D",
"_  c #71948E",
"`  c #6F9690",
"'  c #6F9992",
"]  c #719790",
"[  c #729A93",
"{  c #759E98",
"}  c #799E98",
"|  c #7EA39D",
" . c #838382",
".. c #898987",
"X. c #8B8B8B",
"o. c #90908F",
"O. c #969694",
"+. c #989897",
"@. c #9B9B99",
"#. c #A09F9D",
"$. c #80A49E",
"%. c #A1A19F",
"&. c #82A7A1",
"*. c #84A9A3",
"=. c #88ACA6",
"-. c #8EB2AC",
";. c #93B5AD",
":. c #A5A5A3",
">. c #A8A7A6",
",. c #A8A8A5",
"<. c #A6A9A8",
"1. c #ADAEAE",
"2. c #ACADAD",
"3. c #B0AFAF",
"4. c #AEB1AF",
"5. c #B0B0AF",
"6. c #ADB1B0",
"7. c #ABBAB7",
"8. c #AEBDBA",
"9. c #B2B3B2",
"0. c #B8B7B6",
"q. c #B3BAB9",
"w. c #B8B9B8",
"e. c #BEBEBD",
"r. c #BABCBA",
"t. c #B3C2BF",
"y. c #C1C1BF",
"u. c #B3C3C0",
"i. c #BCC5C4",
"p. c #BDC9C6",
"a. c #C2C2C2",
"s. c #C4C4C3",
"d. c #C6C6C6",
"f. c #C3C4C2",
"g. c #C0C9C7",
"h. c #C9C9C7",
"j. c #C7CECD",
"k. c #CACACA",
"l. c #CDCDCC",
"z. c #CECECE",
"x. c #CFCDCF",
"c. c #CBCBCB",
"v. c #D0D0CF",
"b. c #D2D2D2",
"n. c LightGray",
"m. c #D1D1D1",
"M. c #D4D4D4",
"N. c gray84",
"B. c #D7D7D7",
"V. c #D5D6D5",
"C. c #D4D4D4",
"Z. c #D7D8D7",
"A. c #D8D8D6",
"S. c gray85",
"D. c #D8D8D8",
"F. c #DDDDDD",
"G. c #DFDFE0",
"H. c #E1E0E1",
/* pixels */
"                                                                                                ",
"                                                                                                ",
"                                                                                                ",
"                          X o X X . X X X X X . X X X X o X X X X o X X o                       ",
"                        @ c S V V b V V V V V m V V V V V V C V V b V M 0                       ",
"                        # 2...C C b V C C C C V V V C C C V C C C M C 9.D                       ",
"                        # :.: o o X o o o o o o o o o o o o o o o o o @.D                       ",
"                        + >.: o v b V V V V V V V V V V V V V V V : o @.D                       ",
"                        + >.: o a.k.N.N.S.N.N.n.n.N.S.N.N.n.N.N.N.a o @.D                       ",
"                        + :.: o a.o.O.+.@.+.l.n.n.N.2.O.O.O.+.r.N.a o @.D                       ",
"                        # >.3 o a.b b - a V k.n.n.S.O.V 8 p V 2.S.a o @.D                       ",
"                        + >.: o a.k.l.i %.N.N.O.A 3.Z.N.b @.N.N.N.a o @.D                       ",
"                        + :.: o r.d.k.0 V d.@.d < n a.:.i @.N.n.n.a o +.Z                       ",
"                        # >.: o a.l.n.D - 9.- J R < :.9 i 9.S.S.S.a o @.D                       ",
"                        + @.: o w.a.k.r.i V , K T F n - ..k.l.l.l.a o O.C                       ",
"                        + >.: o a.k.n.l. .= L R I Y > i >.n.N.N.N.a o @.D                       ",
"                        + ,.: o d.l.N.n.%.- T E E W > V w.N.S.S.S.a o @.D                       ",
"                        # :.: o r.d.l.s.i 9 H L U P s # X.l.n.n.n.a o O.Z                       ",
"                        + :.: o r.d.l.@.M r.b 1 G f 5.Z  .r.N.n.C.a o +.Z                       ",
"                        + >.: o s. . .3 b ..l.X.V 2.:...0 c ..w.S.a o @.D                       ",
"                        # :.: o a.e e i i i d.n.n.N.Z i i e i :.N.a o @.D                       ",
"                        $ :.: o X.o.O.@.@.@.@.O.O.@.@.@.@.O.@.@.@.9 o @.D                       ",
"                        # >.8 o o o o o o o o o o o o o o o o o o o o @.D                       ",
"                        # >.v i e 0 e e i e e e e e e e e e e e i 0 e :.Z                       ",
"                        # 9.F.:.O.o.O.+.@.+.+.O.O.+.@.+.+.O.+.+.@.o.w.v.Z                       ",
"                        # 0.H.8 : : : 3 3 3 3 : : 3 3 3 3 : 3 3 3 + X.N.D                       ",
"                        # 9.F.8 y.h.n.N.A.N.N.n.n.N.A.N.N.n.N.N.N.a X.n.D                       ",
"                        + 9.F.8 a.k.n.N.S.N.N.n.n.N.N.N.N.n.N.N.N.a X.n.D                       ",
"                        # 9.H.8 #.>.2.9.9.9.5.2.2.9.9.5.5.2.9.9.9.i X.n.D                       ",
"                        + 9.S.b i 0 i i i i i i i i i i i i i i i 0 @.l.Z                       ",
"                        + 2.j.i.i.q.i.i.g.i.i.i.i.i.g.i.i.i.p.i.p.r.i.s.C                       ",
"                        $ 6.=.( / ! / / / / / ^ ~ / / / / ~ / / / ^ _ u.D                       ",
"                        + 6.=.; 9 9 0 w t e 0 0 0 0 q q 0 0 w 0 q = g t.D                       ",
"                        + 9.-.2 k.n.F.H.H.F.G.F.F.H.H.F.F.S.H.H.H.c k p. .                      ",
"                        + 6.=.; %.>.2.9.9.9.9.2.2.9.9.9.9.2.9.9.9.i h u.D                       ",
"                        # 2.*.r 2 2 5 5 5 5 5 5 5 5 5 5 5 5 5 5 5 4 l 8.Z                       ",
"                        # <.$.) ) ^ ( _ ) _ ' ( ( _ ) ] ] ) ] ] ] ) ] 7.C                       ",
"                        # 6.=.7 & & & & & & ) r * l r ^ { [ { [ [ ' { u.D                       ",
"                        # 2.=.^ ! z ) ~ ) ^ Q ) ! ! ! ! ! x ] { { [ { t.D                       ",
"                        # 4.=.y 5 2 ! u ! y 5 B y 5 5 5 5 5 ~ { { [ { t.D                       ",
"                        # 4.=.! z l ! B ! ! z ( ! z N ) _ ! ! ! ` ] { u.D                       ",
"                        # <.$.; o o o o o o O j 2 o o x ) 6 O O j ) ` 7.C                       ",
"                        + <.$.] _ / ) ] ] ] ] ) ) ] ] ' ) ) ] ] ) ) ) 7.C                       ",
"                        $ 4.;.&.&.} $.&.&.&.&.| $.&.&.&.&.| *.&.&.| &.i.D                       ",
"                        + :.i.q.q.2.9.q.q.q.q.9.9.q.q.q.q.9.q.q.q.6.q.r.V                       ",
"                        X - 3 : : - : : : : : : : : : : : : : : : : : : %                       ",
"                                                                                                ",
"                                                                                                "
};