/* XPM */
static char *_3ff67c15d4047038197710fb42228bdO3oorkKWzde7C96S[] = {
/* columns rows colors chars-per-pixel */
"48 48 197 2 ",
"   c None",
".  c #070B0B",
"X  c #08090B",
"o  c #040608",
"O  c #07170E",
"+  c #0A120E",
"@  c #081E0D",
"#  c #0C1510",
"$  c #0D1C12",
"%  c #161211",
"&  c #161A14",
"*  c #100907",
"=  c #0C2618",
"-  c #0B2E1D",
";  c #162C19",
":  c #142619",
">  c #0B311D",
",  c #1A341E",
"<  c #1D3C1F",
"1  c #30231C",
"2  c #0D3921",
"3  c #113F22",
"4  c #2C2524",
"5  c #382A26",
"6  c #313C2D",
"7  c #3E3F3F",
"8  c #5E311A",
"9  c #46372B",
"0  c #4C3A31",
"q  c #543229",
"w  c #6D3E21",
"e  c #0D4326",
"r  c #0B4C26",
"t  c #0D4B28",
"y  c #104124",
"u  c #114929",
"i  c #1B4727",
"p  c #0F512A",
"a  c #13542B",
"s  c #1A5C2E",
"d  c #15572D",
"f  c #1E5C30",
"g  c #214C26",
"h  c #254D2A",
"j  c #2A4729",
"k  c #344428",
"l  c #2A552C",
"z  c #27582E",
"x  c #29582E",
"c  c #26512A",
"v  c #255434",
"b  c #2B5332",
"n  c #2B5C33",
"m  c #2C5A3B",
"M  c #315234",
"N  c #395835",
"B  c #1D6332",
"V  c #206434",
"C  c #2B6433",
"Z  c #236B36",
"A  c #2E6937",
"S  c #316936",
"D  c #316C39",
"F  c #396636",
"G  c #2C733B",
"H  c #2F7B3C",
"J  c #2C7436",
"K  c #347D3E",
"L  c #397F3F",
"P  c #3E7435",
"I  c #414C2A",
"U  c #4D412A",
"Y  c #5A4D26",
"T  c #51442A",
"R  c #5B4E28",
"E  c #42502C",
"W  c #4D423F",
"Q  c #425839",
"!  c #477A3D",
"~  c #367F41",
"^  c #3A7D42",
"/  c #535A40",
"(  c #545557",
")  c #614E44",
"_  c #6F564C",
"`  c #775D54",
"'  c #625D55",
"]  c #4F794C",
"[  c #7C665F",
"{  c #74694E",
"}  c #7F6B65",
"|  c #7E7873",
" . c #931E32",
".. c #922033",
"X. c #803431",
"o. c #852831",
"O. c #B03F30",
"+. c #AD382F",
"@. c #B94B27",
"#. c #B64D2A",
"$. c #B84C29",
"%. c #BB5A30",
"&. c #996B32",
"*. c #8F7A37",
"=. c #8E7939",
"-. c #837F3A",
";. c #9D7235",
":. c #917836",
">. c #947737",
",. c #AE692F",
"<. c #B9612E",
"1. c #A56C34",
"2. c #C25C2D",
"3. c #CA562B",
"4. c #D55E38",
"5. c #CE6039",
"6. c #D3623B",
"7. c #815647",
"8. c #8A6F51",
"9. c #8F6D5F",
"0. c #826153",
"q. c #9D6956",
"w. c #9B6759",
"e. c #9D6858",
"r. c #996755",
"t. c #8B7354",
"y. c #986E46",
"u. c #A16955",
"i. c #A16A58",
"p. c #A16757",
"a. c #8E6E61",
"s. c #9E7566",
"d. c #AD7963",
"f. c #39863E",
"g. c #38853F",
"h. c #79833C",
"j. c #3A8243",
"k. c #3A8A41",
"l. c #498E41",
"z. c #459E46",
"x. c #4A9C45",
"c. c #459E48",
"v. c #499D4A",
"b. c #459345",
"n. c #598554",
"m. c #5C8D64",
"M. c #699A72",
"N. c #A7805A",
"B. c #B58575",
"V. c #BC8571",
"C. c #BE8A76",
"Z. c #B59A77",
"A. c #A78E6C",
"S. c #BCA17E",
"D. c #CF8359",
"F. c #C38C76",
"G. c #C48D79",
"H. c #CD947D",
"J. c #E99D7F",
"K. c #BF9480",
"L. c #B6A185",
"P. c #9B9EA2",
"I. c #CF9681",
"U. c #CE9D89",
"Y. c #C79684",
"T. c #D29A84",
"R. c #C9A89E",
"E. c #C9A598",
"W. c #DBA692",
"Q. c #D4AA9A",
"!. c #D8B09F",
"~. c #C4A884",
"^. c #F1AD93",
"/. c #E5B39E",
"(. c #EEB59F",
"). c #CBACA3",
"_. c #D6B4AB",
"`. c #EDB9A4",
"'. c #E6BBA7",
"]. c #F2BEAB",
"[. c #F1BBA4",
"{. c #E6C0AE",
"}. c #E8C6B4",
"|. c #F3C5B2",
" X c #F7CABA",
".X c #F7C9B6",
"XX c #F8D1BF",
"oX c #C3C4C5",
"OX c #F9CFC1",
"+X c #FAD3C6",
"@X c #FAD2C6",
"#X c #F9D3C8",
"$X c #F9D3C9",
"%X c #FAD3C8",
"&X c #F9D3C8",
"*X c #FADDD1",
"=X c #FEFDFB",
/* pixels */
"                                              j.^                                               ",
"                                            ^ g < ^           ^                                 ",
"                                            A ; $ G         S A                                 ",
"                                        j.D + . O t       j.c + D                               ",
"                          ^           L h , X X . = 2 s L i : . d B                             ",
"                          S b         S , X X X X X y f S $ . . e u                             ",
"                          X . .     ^ . X X X X X X n n . X . . e u                             ",
"                        ^ # . . X g ^ . X X X X X X $ $ . X X . e u   j.                        ",
"                        L $ . . X ; b . X X X X X X X X X X X . e d   G                         ",
"                        L $ . . X X . X X X X X X X X X X X X . e V ^ p                         ",
"                        ~ $ X X X X X X X X X X X X X X X X X + A g @ r                         ",
"                      S x # X X X X X X X X X X X X X X X X X . h , . - i                       ",
"                    ^ C X X X X X X X X X X X X X X X X X X . X . X X X h L                     ",
"                    a 3 X X X X X X X X X X X X X X X X X X X X X X X . > a                     ",
"                    r 2 X . X X X X X X X X X X X X X X X X X X X X X . > r                     ",
"                    t 2 + X X X X X X X X X X X X X X X X X X X X X X + > r                     ",
"                        e + X X X X . X X X X X X X X X X X . X X X . e                         ",
"                        t # X X X X X ` [ } } } } } } [ ` & X X X X . e                         ",
"                        e # . X X % 1 `. X#X@X@X#X#X#X X`.0 % . X . O y                         ",
"                          t - . X _ `.@X@X#X@X@X#X#X#X@X@X].a.X X = u                           ",
"                          t - . . _ `.@X@X#X#X#X#X#X#X#X#X].a.X X = t                           ",
"                          b k 5 X _ `.R.R.).#X#X#X#X_.R.)./.9.X 4 6 b                           ",
"                          q.F.W.4 _ /.X o 4 #X#X#X@XW o o K.9.% U.H.q.                          ",
"                          e.G.W.4 _ `.oX( 4 @X@X#X@XW 7 oX'.a.% U.H.q.                          ",
"                          e.C.I.9 0.`.=X| 9 #X#X#X#X) ' =X|.s.1 Y.G.r.                          ",
"                              p.u.F.`.=XL.y.#X#X#X%XN.A.=X|.I.q.p.q.                            ",
"                                q.F.`.*X}.'.#X#X#X#X{.}.*X].I.q.                                ",
"                                q.V.T..XOX#X#X#X#X#X#X@X XW.F.q.                                ",
"                                    i.(.|.@X@X@X#X@X@X X[.d.q.                                  ",
"                                    j 5.6.6.6.J.^.6.6.6.4.E i                                   ",
"                                  s C =.:.:.:.D.D.>.:.:.:.F s                                   ",
"                                r Z f.c.c.c.c.1.<.x.c.c.c.k.Z t                                 ",
"                              t G k.c.c.c.c.z.1.<.x.z.c.z.z.k.K a                               ",
"                              p H H J =.=.-.z.1.<.x.h.*.*.P H ~ a t                             ",
"                            k c ! F j %.2.,.z.1.<.x.;.2.2.I n ! l k                             ",
"                          ..+.3.3.O.o.! l.x.z.1.<.x.x.l.! X.+.3.3.O. .                          ",
"                          9 T R Y T 9 &.&.;.;.w 8 ;.;.;.&.T U Y Y T 9                           ",
"                          h v m m v j #.@.@.$.q 5 $.@.$.$.I v n m v h                           ",
"                          e.Y.XX].I.w.* X X X P.oXX X X X 7.C.`.XXQ.e.                          ",
"                            B.C.V.t.N x z z z m.M.z z z x N { V.G.B.                            ",
"                              q.q./ r g.f.f.k.K K k.k.f.j.d Q q.q.                              ",
"                                    r j.b.v.c.B d v.v.b.j.d u                                   ",
"                                      8.Z.~.t.    t.S.Z.8.                                      ",
"                                      q.U./.u.    u.W.W.u.                                      ",
"                                      r.E.'.q.    r.!.!.r.                                      ",
"                                      M ] n.M     b n.n.M                                       ",
"                                      r B Z r     r B V r                                       ",
"                                      t r t t     t t r t                                       "
};