/* XPM */
static char *result[] = {
/* columns rows colors chars-per-pixel */
"48 48 248 2 ",
"   c #72A11D",
".  c #A1C940",
"X  c #A4CC42",
"o  c #A8CE47",
"O  c #E1F394",
"+  c #2D8810",
"@  c #71A21E",
"#  c #75A41F",
"$  c #78A622",
"%  c #28860F",
"&  c #6D9F1C",
"*  c #9AC43B",
"=  c #79A722",
"-  c #80AD27",
";  c #93BD35",
":  c #9AC33B",
">  c #73A21E",
",  c #74A31F",
"<  c #77A621",
"1  c #95BF37",
"2  c #7AA823",
"3  c #7CA924",
"4  c #86B22C",
"5  c #90BA33",
"6  c #7FAC26",
"7  c #76A420",
"8  c #4F9416",
"9  c #609A1A",
"0  c #71A11D",
"q  c #408F14",
"w  c #6FA01C",
"e  c #629B1A",
"r  c #4D9316",
"t  c #3F8E13",
"y  c #589718",
"u  c #559618",
"i  c #429014",
"p  c #5B9919",
"a  c #619B1A",
"s  c #519517",
"d  c #70A01D",
"f  c #2A870F",
"g  c #4D9416",
"h  c #639C1A",
"j  c #539617",
"k  c #5F9A19",
"l  c #3C8D13",
"z  c #679D1B",
"x  c #499215",
"c  c #317F1E",
"v  c #518F1E",
"b  c #459115",
"n  c #16701F",
"m  c #6C9E1D",
"M  c #398C12",
"N  c #559617",
"B  c #55911E",
"V  c #2E7D1E",
"C  c #338A11",
"Z  c #529517",
"A  c #325B28",
"S  c #36731E",
"D  c #4E9416",
"F  c #639B1A",
"G  c #3B791A",
"H  c #3C6720",
"J  c #6E9F1C",
"K  c #4B9316",
"L  c #709F1D",
"P  c #183D2D",
"I  c #458C17",
"U  c #599818",
"Y  c #31651D",
"T  c #537F1F",
"R  c #5B9819",
"E  c #5E9A19",
"W  c #558122",
"Q  c #235326",
"!  c #4A9316",
"~  c #569718",
"^  c #88B42D",
"/  c #17721D",
"(  c #579718",
")  c #4C9316",
"_  c #2E4328",
"`  c #233F26",
"'  c #3C791A",
"]  c #6EA01C",
"[  c #4B9016",
"{  c #22212F",
"}  c #244D21",
"|  c #478C17",
" . c #22302A",
".. c #3B6520",
"X. c #649C1A",
"o. c #3E6F1E",
"O. c #222C2C",
"+. c #2D601E",
"@. c #4B9017",
"#. c #485D27",
"$. c #13412C",
"%. c #4B8F18",
"&. c #30661D",
"*. c #4C3D31",
"=. c #5E323A",
"-. c #3B4729",
";. c #25551F",
":. c #3C4729",
">. c #4C9017",
",. c #26541F",
"<. c #5D3339",
"1. c #2B5122",
"2. c #3C781A",
"3. c #407E19",
"4. c #374A27",
"5. c #513A33",
"6. c #295421",
"7. c #6A4541",
"8. c #4C283A",
"9. c #27561F",
"0. c #25591D",
"q. c #4B3B31",
"w. c #924C45",
"e. c #AC584B",
"r. c #7A4040",
"t. c #593139",
"y. c #28561F",
"u. c #5B3139",
"i. c #AA574B",
"p. c #62353B",
"a. c #374B27",
"s. c #733D3E",
"d. c #994F47",
"f. c #60363B",
"g. c #C3835F",
"h. c #8F3B45",
"j. c #573039",
"k. c #542F38",
"l. c #934C45",
"z. c #B46751",
"x. c #B96E54",
"c. c #B0604E",
"v. c #AB564A",
"b. c #AB574B",
"n. c #AC594B",
"m. c #AF5E4D",
"M. c #B66952",
"N. c #AD5B4D",
"B. c #CF9E6E",
"V. c #A14744",
"C. c #A95449",
"Z. c #AA554A",
"A. c #B56751",
"S. c #AA564A",
"D. c #BA7156",
"F. c #B86C53",
"G. c #B76C52",
"H. c #B66B52",
"J. c #B86D53",
"K. c #B3694F",
"L. c #B2684F",
"P. c #B56A51",
"I. c #B86E54",
"U. c #B36950",
"Y. c #9A4244",
"T. c #B56A52",
"R. c #B3684F",
"E. c #B56B51",
"W. c #B46A50",
"Q. c #B86F54",
"!. c #CA9368",
"~. c #893746",
"^. c #AF644E",
"/. c #B2684E",
"(. c #B66B51",
"). c #BD7759",
"_. c #B86D54",
"`. c #B2674E",
"'. c #B0664D",
"]. c #B76C53",
"[. c #A04744",
"{. c #B76B53",
"}. c #B1674E",
"|. c #BA7155",
" X c #CF9D6D",
".X c #853346",
"XX c #AD634D",
"oX c #B46950",
"OX c #B96F55",
"+X c #843346",
"@X c #B1674D",
"#X c #9E4544",
"$X c #B97055",
"%X c #CD996B",
"&X c #B66C52",
"*X c #B0614E",
"=X c #AA574A",
"-X c #AD5D4C",
";X c #923D45",
":X c #B26750",
">X c #B0604D",
",X c #AF604D",
"<X c #AE5F4C",
"1X c #AB584A",
"2X c #AE5B4C",
"3X c #B76D55",
"4X c #C07E5D",
"5X c #B56C51",
"6X c #C48560",
"7X c #B87056",
"8X c #B86F56",
"9X c #AA584A",
"0X c #AD5A4C",
"qX c #C2815E",
"wX c #C78D65",
"eX c #C07D5C",
"rX c #BF7B5B",
"tX c #B2634F",
"yX c #C48561",
"uX c #C17F5D",
"iX c #B76D53",
"pX c #BF7C5C",
"aX c #C58A62",
"sX c #BD7C5B",
"dX c #984145",
"fX c #B46951",
"gX c #AD5F4B",
"hX c #AB5C4A",
"jX c #B0654E",
"kX c #B76E53",
"lX c #C88F66",
"zX c #BD7859",
"xX c #A85248",
"cX c #B76A52",
"vX c #B1664D",
"bX c #8B3846",
"nX c #CB9569",
"mX c #BE795A",
"MX c #A85349",
"NX c #B1604E",
"BX c #C88E65",
"VX c #B56952",
"CX c #AD5C4D",
"ZX c #C78E65",
"AX c #CC976A",
"SX c #9F4644",
"DX c #CE9B6C",
"FX c #A34945",
/* pixels */
"  . X X X X X X X X X X X X X X X X X X X X X X X X X X X X X X X X X X X X X X X X X X X X o O ",
"+ @ # # # # # # # # # # # # # # # # # # # # # # # # # # # # # # # # # # # # # # # # # # # # $ o ",
"% & * =                         - ;                                                     = : # X ",
"% & = >                         , <                                                     > = # X ",
"% &                                                   1 2                                   # X ",
"% &                                                   3 ,             4 4                   # X ",
"% &     5 2                                                           = =                   # X ",
"% &     6 7   8 9                             0 q w                             e r         # X ",
"% &           t y u i p       a s             d f &       g i h j k             p l z i x   # X ",
"% &           c v b % 8       y t             d n m       M % p i N             B V a % C   # X ",
"% &       Z z A S D Z F     e G H         J K L P I J     U Z K Y T R E         W Q ! Z ~   > ^ ",
"/ m       ( ) _ ` ' K K K K ' ` _ ~       ] D [ { } | K K K K Y  ...g a       X.o.O.+.K K K @.#.",
"$.%.8 8 8 8 &.*.=.-.;.;.;.;.:.=.*.&.8 8 8 8 >.,.<.=.1.;.;.;.;.*.=.-.2.8 8 8 8 3.4.=.5.;.;.;.6.7.",
"8.9.0.0.0.0.q.w.e.r.t.t.t.t.r.e.w.q.0.0.0.0.y.u.i.e.p.t.t.t.t.w.e.r.:.0.0.0.0.a.s.e.d.t.t.t.f.g.",
"h.j.k.k.k.k.l.z.x.c.v.v.v.v.c.x.z.l.k.k.k.k.t.b.x.x.n.v.v.v.v.z.x.c.r.k.k.k.k.s.m.x.M.v.v.v.N.B.",
"V.C.Z.Z.Z.Z.A.x.x.x.x.x.x.x.x.x.x.A.Z.Z.Z.Z.S.x.x.x.x.x.x.x.x.x.x.x.c.Z.Z.Z.Z.m.x.x.x.x.x.x.D.B.",
"V.F.x.x.G.H.H.H.H.H.J.x.x.x.x.x.x.x.x.x.x.H.H.H.H.H.H.x.x.x.x.x.x.x.x.x.x.J.H.H.H.H.H.G.x.x.D.B.",
"V.F.G.G.K.L.L.L.L.L.P.G.J.x.x.x.x.x.I.G.H.L.L.L.L.L.L.H.G.I.x.x.x.x.x.J.G.P.L.L.L.L.L.U.G.G.D.B.",
"Y.T.R.L.J.x.x.x.x.x.E.L.W.G.G.G.G.G.H.L.K.x.x.x.x.x.x.K.L.H.G.G.G.G.G.W.L.E.x.x.x.x.x.J.L.R.Q.!.",
"~.^.J.x.x.x.x.x.x.x.x.x.E./././././.U.x.x.x.x.x.x.x.x.x.x.U./././././.(.x.x.x.x.x.x.x.x.x.J.L.).",
"V.F.x.x.x.x.x.x.x.x.x.x.x.x.x.x.x.x.x.x.x.x.x.x.x.x.x.x.x.x.x.x.x.x.x.x.x.x.x.x.x.x.x.x.x.x.D.B.",
"V.F.x.x.J.J.J.J.J.J.x.x.x.x.x.x.x.x.x.x.x.J.J.J.J.J.J.x.x.x.x.x.x.x.x.x.x.x.J.J.J.J.J.J.x.x.D.B.",
"V.F.I._.`.'.'.'.'.'.P._.x.x.x.x.x.x.x._.].'.'.'.'.'.'.]._.x.x.x.x.x.x.x._.P.'.'.'.'.'.`._.I.D.B.",
"[.{.}.'.'.'.'.'.'.'.'.'.W.x.x.x.x.x.G.'.'.'.'.'.'.'.'.'.'.G.x.x.x.x.x.W.'.'.'.'.'.'.'.'.'.}.|. X",
".XXX'.'.].x.x.x.x.x.oX'.'.'.'.'.'.'.'.'.}.x.x.x.x.x.x.}.'.'.'.'.'.'.'.'.'.oXx.x.x.x.x.].'.'.}.OX",
"+XXXJ.I.x.x.x.x.x.x.x.I.W.'.'.'.'.'.L.I.x.x.x.x.x.x.x.x.I.L.'.'.'.'.'.W.I.x.x.x.x.x.x.x.I.J.@Xx.",
"#XH.x.x.x.x.x.x.x.x.x.x.x.J.J.J.J.J.J.x.x.x.x.x.x.x.x.x.x.J.J.J.J.J.J.x.x.x.x.x.x.x.x.x.x.x.$X%X",
"V.F.x.x.x.x.x.x.x.x.x.x.x.x.x.x.x.x.x.x.x.x.x.x.x.x.x.x.x.x.x.x.x.x.x.x.x.x.x.x.x.x.x.x.x.x.D.B.",
"V.F.x.x.x.x.x.x.x.x.x.x.x.x.x.x.x.x.x.x.x.x.x.x.x.x.x.x.x.x.x.x.x.x.x.x.x.x.x.x.x.x.x.x.x.x.D.B.",
"V.F.x.x.x.x.x.x.x.x.x.x.x.x.x.x.x.x.x.x.x.x.x.x.x.x.x.x.x.x.x.x.x.x.x.x.x.x.x.x.x.x.x.x.x.x.D.B.",
"V.F.x.x.x.x.x.x.x.x.x.x.x.x.x.x.x.x.x.x.x.x.x.x.x.x.x.x.x.x.x.x.x.x.x.x.x.x.x.x.x.x.x.x.x.x.D.B.",
"V.F.x.x.x.x.x.x.x.x.x.x.x.x.x.x.x.x.x.x.x.x.x.x.x.x.x.x.x.x.x.x.x.x.x.x.x.x.x.x.x.x.x.x.x.x.D.B.",
"V.F.x.x.x.x.x.x.x.x.x.x.x.x.x.x.x.x.x.x.x.x.x.x.x.x.x.x.x.x.x.x.x.x.x.x.x.x.x.x.x.x.x.x.x.x.D.B.",
"V.F.x.x.P.oXoXoXoXoXG.x.x.x.x.x.x.x.x.x.J.oXoXoXoXoXoXJ.x.x.x.x.x.x.x.x.x.G.oXoXoXoXoXP.x.x.D.B.",
"V.F.W.oXP.E.E.E.E.E.W.oX&Xx.x.x.x.x.J.oXW.E.E.E.E.E.E.W.oXJ.x.x.x.x.x.&X*X=X-XE.E.E.E.P.oXW.D.B.",
";X:XP.P.J.x.x.x.x.x.>X,XP.W.W.W.W.W.W.P.E.x.x.x.x.x.x.E.P.W.W.W.W.W.W.<X1X2X3X4Xx.x.x.J.P.P.5X6X",
";X:Xx.x.x.x.x.x.x.x.7X8XG.W.W.W.W.W.E.x.x.x.x.x.x.x.x.x.x.E.W.W.W.W.W.9X0Xx.qXwXx.x.x.x.x.x.5X6X",
"V.F.x.x.x.x.x.x.x.x.eXrXx.x.x.x.x.x.x.x.x.x.x.x.x.x.x.x.x.x.x.x.x.x.x.tX3Xg.yXuXx.x.x.x.x.x.D.B.",
"V.F.x.x.H.E.E.E.E.E.iXx.x.x.x.x.x.x.x.x.I.E.E.E.E.E.E.I.x.x.x.x.x.x.x.x.pXaXsXE.E.E.E.H.x.x.D.B.",
"V.F.H.H.}.'.'.'.'.'.U.H.iXx.x.x.x.x.J.H.P.'.'.'.'.'.'.P.H.J.x.x.x.x.x.iXH.U.'.'.'.'.'.}.H.H.D.B.",
"dXfX}.'.L.gXhXjXK.K.}.'.K.H.H.H.H.H.P.'.'.K.K.K.K.K.K.'.'.P.H.H.H.H.H.K.'.}.K.K.K.K.K.L.'.}.kXlX",
"+XXXL.L.zXN.xXm.cXx.E.L.}.'.'.'.'.'.vXL.U.x.x.x.x.x.x.U.L.vX'.'.'.'.'.}.L.E.x.x.x.x.x.J.L.L.@Xx.",
"bXjXJ.x.nXmXx.MXNXx.x.x.(.L.L.L.L.L.oXx.x.x.x.x.x.x.x.x.x.oXL.L.L.L.L.(.x.x.x.x.x.x.F.A.x.J.K.mX",
"V.F.x.x.BX4X).N.tXx.x.x.x.x.x.x.x.x.x.x.x.x.x.x.x.x.x.x.x.x.x.x.x.x.x.x.x.x.x.x.x.x.VXCXx.x.D.B.",
"V.F.x.x.x.ZXAXrXx.x.x.x.x.x.x.x.x.x.x.x.x.x.x.x.x.x.x.x.x.x.x.x.x.x.x.x.x.x.x.x.x.x.).lXx.x.D.B.",
"V.F.x.x.x.x.x.x.x.x.x.x.x.x.x.x.x.x.x.x.x.x.x.x.x.x.x.x.x.x.x.x.x.x.x.x.x.x.x.x.x.x.x.x.x.x.D.B.",
"SXM.].].].].].].].].].].].].].].].].].].].].].].].].].].].].].].].].].].].].].].].].].].].].OXDX",
"+XSXV.V.V.V.V.V.V.V.V.V.V.V.V.V.V.V.V.V.V.V.V.V.V.V.V.V.V.V.V.V.V.V.V.V.V.V.V.V.V.V.V.V.V.V.FXx."
};