/* XPM */
static char *result[] = {
/* columns rows colors chars-per-pixel */
"48 48 112 2 ",
"   c #A14744",
".  c #B86C53",
"X  c #B96E54",
"o  c #BA7156",
"O  c #CF9E6E",
"+  c #B2684F",
"@  c #B1664D",
"#  c #B56B51",
"$  c #B86D53",
"%  c #B2684E",
"&  c #B1674E",
"*  c #B76C52",
"=  c #B46A50",
"-  c #B56A51",
";  c #B76C53",
":  c #883646",
">  c #AF644E",
",  c #B3684F",
"<  c #BC7558",
"1  c #9C4344",
"2  c #B66A52",
"3  c #B76D53",
"4  c #B96F54",
"5  c #CB9569",
"6  c #B46950",
"7  c #B66B52",
"8  c #B36950",
"9  c #B0664D",
"0  c #B2674E",
"q  c #B66B51",
"w  c #8E3A45",
"e  c #B1664F",
"r  c #B3694F",
"t  c #C17F5D",
"y  c #843346",
"u  c #AD634D",
"i  c #B1674D",
"p  c #943E45",
"a  c #B36850",
"s  c #B66C52",
"d  c #C58963",
"f  c #B86E54",
"g  c #9A4244",
"h  c #B56A52",
"j  c #B86F54",
"k  c #CA9368",
"l  c #893746",
"z  c #BD7759",
"x  c #B86D54",
"c  c #A04744",
"v  c #B76B53",
"b  c #BA7155",
"n  c #CF9D6D",
"m  c #853346",
"M  c #B96F55",
"N  c #9E4544",
"B  c #B97055",
"V  c #CD996B",
"C  c #B0614E",
"Z  c #AA574A",
"A  c #AD5D4C",
"S  c #923D45",
"D  c #B26750",
"F  c #B0604D",
"G  c #AF604D",
"H  c #AE5F4C",
"J  c #AB584A",
"K  c #AE5B4C",
"L  c #B76D55",
"P  c #C07E5D",
"I  c #B56C51",
"U  c #C48560",
"Y  c #B87056",
"T  c #B86F56",
"R  c #AA584A",
"E  c #AD5A4C",
"W  c #C2815E",
"Q  c #C78D65",
"!  c #C07D5C",
"~  c #BF7B5B",
"^  c #B2634F",
"/  c #C3835F",
"(  c #C48561",
")  c #BF7C5C",
"_  c #C58A62",
"`  c #BD7C5B",
"'  c #984145",
"]  c #B46951",
"[  c #AD5F4B",
"{  c #AB5C4A",
"}  c #B0654E",
"|  c #B76E53",
" . c #C88F66",
".. c #BD7859",
"X. c #AD5B4D",
"o. c #A85248",
"O. c #AF5E4D",
"+. c #B76A52",
"@. c #8B3846",
"#. c #BE795A",
"$. c #A85349",
"%. c #B1604E",
"&. c #B56751",
"*. c #C88E65",
"=. c #B56952",
"-. c #AD5C4D",
";. c #C78E65",
":. c #CC976A",
">. c #9F4644",
",. c #B66952",
"<. c #CE9B6C",
"1. c #A34945",
/* pixels */
"  . X X X X X X X X X X X X X X X X X X X X X X X X X X X X X X X X X X X X X X X X X X X X o O ",
"  . X X + @ @ @ @ @ # X X X X X X X X X $ @ @ @ @ @ @ $ X X X X X X X X X # @ @ @ @ @ + X X o O ",
"  . % & * $ $ $ $ $ = & - X X X X X ; & + $ $ $ $ $ $ + & ; X X X X X - & = $ $ $ $ $ * & % o O ",
": > * $ X X X X X X $ $ - & & & & & , $ $ X X X X X X $ $ , & & & & & - $ $ X X X X X X $ * + < ",
"1 2 X X X X X X X X X X $ 3 3 3 3 3 $ X X X X X X X X X X $ 3 3 3 3 3 $ X X X X X X X X X X 4 5 ",
"  . X X X X X X X X X X X X X X X X X X X X X X X X X X X X X X X X X X X X X X X X X X X X o O ",
"  . X X 6 + + + + + 7 X X X X X X X X X $ + + + + + + $ X X X X X X X X X 7 + + + + + 6 X X o O ",
"  . 8 , @ 9 9 9 9 9 0 , q X X X X X $ , + 9 9 9 9 9 9 + , $ X X X X X q , 0 9 9 9 9 9 @ , 8 o O ",
"w e 9 9 - 7 7 7 7 7 , 9 0 r r r r r + 9 & 7 7 7 7 7 7 & 9 + r r r r r 0 9 , 7 7 7 7 7 - 9 9 = t ",
"y u - # $ X X X X X * # r 9 9 9 9 9 & # 7 X X X X X X 7 # & 9 9 9 9 9 r # * X X X X X $ # - i X ",
"p a X X X X X X X X X X ; # # # # # 7 X X X X X X X X X X 7 # # # # # ; X X X X X X X X X X s d ",
"  . X X X X X X X X X X X X X X X X X X X X X X X X X X X X X X X X X X X X X X X X X X X X o O ",
"  . X X X X X X X X X X X X X X X X X X X X X X X X X X X X X X X X X X X X X X X X X X X X o O ",
"  . X X X X X X X X X X X X X X X X X X X X X X X X X X X X X X X X X X X X X X X X X X X X o O ",
"  . X X X X X X X X X X X X X X X X X X X X X X X X X X X X X X X X X X X X X X X X X X X X o O ",
"  . X X X X X X X X X X X X X X X X X X X X X X X X X X X X X X X X X X X X X X X X X X X X o O ",
"  . X X X X X X X X X X X X X X X X X X X X X X X X X X X X X X X X X X X X X X X X X X X X o O ",
"  . * * r + + + + + - * $ X X X X X f * 7 + + + + + + 7 * f X X X X X $ * - + + + + + 8 * * o O ",
"g h , + $ X X X X X # + = * * * * * 7 + r X X X X X X r + 7 * * * * * = + # X X X X X $ + , j k ",
"l > $ X X X X X X X X X # % % % % % 8 X X X X X X X X X X 8 % % % % % q X X X X X X X X X $ + z ",
"  . X X X X X X X X X X X X X X X X X X X X X X X X X X X X X X X X X X X X X X X X X X X X o O ",
"  . X X $ $ $ $ $ $ X X X X X X X X X X X $ $ $ $ $ $ X X X X X X X X X X X $ $ $ $ $ $ X X o O ",
"  . f x 0 9 9 9 9 9 - x X X X X X X X x ; 9 9 9 9 9 9 ; x X X X X X X X x - 9 9 9 9 9 0 x f o O ",
"c v & 9 9 9 9 9 9 9 9 9 = X X X X X * 9 9 9 9 9 9 9 9 9 9 * X X X X X = 9 9 9 9 9 9 9 9 9 & b n ",
"m u 9 9 ; X X X X X 6 9 9 9 9 9 9 9 9 9 & X X X X X X & 9 9 9 9 9 9 9 9 9 6 X X X X X ; 9 9 & M ",
"y u $ f X X X X X X X f = 9 9 9 9 9 + f X X X X X X X X f + 9 9 9 9 9 = f X X X X X X X f $ i X ",
"N 7 X X X X X X X X X X X $ $ $ $ $ $ X X X X X X X X X X $ $ $ $ $ $ X X X X X X X X X X X B V ",
"  . X X X X X X X X X X X X X X X X X X X X X X X X X X X X X X X X X X X X X X X X X X X X o O ",
"  . X X X X X X X X X X X X X X X X X X X X X X X X X X X X X X X X X X X X X X X X X X X X o O ",
"  . X X X X X X X X X X X X X X X X X X X X X X X X X X X X X X X X X X X X X X X X X X X X o O ",
"  . X X X X X X X X X X X X X X X X X X X X X X X X X X X X X X X X X X X X X X X X X X X X o O ",
"  . X X X X X X X X X X X X X X X X X X X X X X X X X X X X X X X X X X X X X X X X X X X X o O ",
"  . X X X X X X X X X X X X X X X X X X X X X X X X X X X X X X X X X X X X X X X X X X X X o O ",
"  . X X - 6 6 6 6 6 * X X X X X X X X X $ 6 6 6 6 6 6 $ X X X X X X X X X * 6 6 6 6 6 - X X o O ",
"  . = 6 - # # # # # = 6 s X X X X X $ 6 = # # # # # # = 6 $ X X X X X s C Z A # # # # - 6 = o O ",
"S D - - $ X X X X X F G - = = = = = = - # X X X X X X # - = = = = = = H J K L P X X X $ - - I U ",
"S D X X X X X X X X Y T * = = = = = # X X X X X X X X X X # = = = = = R E X W Q X X X X X X I U ",
"  . X X X X X X X X ! ~ X X X X X X X X X X X X X X X X X X X X X X X ^ L / ( t X X X X X X o O ",
"  . X X 7 # # # # # 3 X X X X X X X X X f # # # # # # f X X X X X X X X ) _ ` # # # # 7 X X o O ",
"  . 7 7 & 9 9 9 9 9 8 7 3 X X X X X $ 7 - 9 9 9 9 9 9 - 7 $ X X X X X 3 7 8 9 9 9 9 9 & 7 7 o O ",
"' ] & 9 + [ { } r r & 9 r 7 7 7 7 7 - 9 9 r r r r r r 9 9 - 7 7 7 7 7 r 9 & r r r r r + 9 & |  .",
"y u + + ..X.o.O.+.X # + & 9 9 9 9 9 @ + 8 X X X X X X 8 + @ 9 9 9 9 9 & + # X X X X X $ + + i X ",
"@.} $ X 5 #.X $.%.X X X q + + + + + 6 X X X X X X X X X X 6 + + + + + q X X X X X X . &.X $ r #.",
"  . X X *.P z X.^ X X X X X X X X X X X X X X X X X X X X X X X X X X X X X X X X X =.-.X X o O ",
"  . X X X ;.:.~ X X X X X X X X X X X X X X X X X X X X X X X X X X X X X X X X X X z  .X X o O ",
"  . X X X X X X X X X X X X X X X X X X X X X X X X X X X X X X X X X X X X X X X X X X X X o O ",
">.,.; ; ; ; ; ; ; ; ; ; ; ; ; ; ; ; ; ; ; ; ; ; ; ; ; ; ; ; ; ; ; ; ; ; ; ; ; ; ; ; ; ; ; ; M <.",
"y >.                                                                                        1.X "
};