/* XPM */
static char *result[] = {
/* columns rows colors chars-per-pixel */
"48 48 7 1 ",
"  c #3E8948",
". c #3D6C43",
"X c #3F2832",
"o c #6D483B",
"O c #9C6754",
"+ c #193C3E",
"@ c #265C42",
/* pixels */
"                                                ",
"                                                ",
"                                                ",
"                                                ",
"                                                ",
"                                                ",
"                                                ",
"                                                ",
"                                                ",
"   .........      ......      .........         ",
"   .........      ......      .........         ",
"   .........      ......      .........         ",
"...XXXXXXXXX......XXXXXX......XXXXXXXXX...   ...",
"...XXXXXXXXX......XXXXXX......XXXXXXXXX...   ...",
"...XXXXXXXXX......XXXXXX......XXXXXXXXX...   ...",
"XXXoooooooooXXXXXXOOOoooXXXXXXOOOOOOOOOXXX...XXX",
"XXXoooooooooXXXXXXOOOoooXXXXXXOOOOOOOOOXXX...XXX",
"XXXoooooooooXXXXXXOOOoooXXXXXXOOOOOOOOOXXX...XXX",
"ooo+++++++++oooOOOooo+++++++++oooOOOOOOoooXXXooo",
"ooo+++++++++oooOOOooo+++++++++oooOOOOOOoooXXXooo",
"ooo+++++++++oooOOOooo+++++++++oooOOOOOOoooXXXooo",
"+++@@@@@@@@@+++ooo+++@@@@@@@@@+++oooooo++++++ooo",
"+++@@@@@@@@@+++ooo+++@@@@@@@@@+++oooooo++++++ooo",
"+++@@@@@@@@@+++ooo+++@@@@@@@@@+++oooooo++++++ooo",
"+++@@@@@@   @@@+++@@@@@@      @@@++++++@@@@@@+++",
"+++@@@@@@   @@@+++@@@@@@      @@@++++++@@@@@@+++",
"+++@@@@@@   @@@+++@@@@@@      @@@++++++@@@@@@+++",
"@@@@@@      @@@+++@@@            @@@+++@@@   @@@",
"@@@@@@      @@@+++@@@            @@@+++@@@   @@@",
"@@@@@@      @@@+++@@@            @@@+++@@@   @@@",
"               @@@@@@               @@@@@@      ",
"               @@@@@@               @@@@@@      ",
"               @@@@@@               @@@@@@      ",
"                                                ",
"                                                ",
"                                                ",
"                                                ",
"                                                ",
"                                                ",
"                                                ",
"                                                ",
"                                                ",
"                                                ",
"                                                ",
"                                                ",
"                                                ",
"                                                ",
"                                                "
};