/* XPM */
static char *result[] = {
/* columns rows colors chars-per-pixel */
"48 48 7 1 ",
"  c #3E8948",
". c #265C42",
"X c #193C3E",
"o c #6D483B",
"O c #9C6754",
"+ c #3F2832",
"@ c #3D6C43",
/* pixels */
"               ...XXXXXXooooooOOO+++@@@@@@      ",
"               ...XXXXXXooooooOOO+++@@@@@@      ",
"               ...XXXXXXooooooOOO+++@@@@@@      ",
"                  ......XXXoooOOO+++@@@@@@      ",
"                  ......XXXoooOOO+++@@@@@@      ",
"                  ......XXXoooOOO+++@@@@@@      ",
"                     ......XXXooo+++@@@@@@      ",
"                     ......XXXooo+++@@@@@@      ",
"                     ......XXXooo+++@@@@@@      ",
"                        ...XXX+++@@@@@@         ",
"                        ...XXX+++@@@@@@         ",
"                        ...XXX+++@@@@@@         ",
"                  .........XXX+++@@@@@@         ",
"                  .........XXX+++@@@@@@         ",
"                  .........XXX+++@@@@@@         ",
"               ...XXXXXXXXXoooooo+++@@@@@@      ",
"               ...XXXXXXXXXoooooo+++@@@@@@      ",
"               ...XXXXXXXXXoooooo+++@@@@@@      ",
"               .........XXXXXXOOO+++@@@@@@      ",
"               .........XXXXXXOOO+++@@@@@@      ",
"               .........XXXXXXOOO+++@@@@@@      ",
"                     ......XXXOOO+++@@@@@@      ",
"                     ......XXXOOO+++@@@@@@      ",
"                     ......XXXOOO+++@@@@@@      ",
"                        ...XXXOOO+++@@@@@@      ",
"                        ...XXXOOO+++@@@@@@      ",
"                        ...XXXOOO+++@@@@@@      ",
"                        ...XXXooo+++@@@@@@      ",
"                        ...XXXooo+++@@@@@@      ",
"                        ...XXXooo+++@@@@@@      ",
"                     ......XXX+++@@@@@@         ",
"                     ......XXX+++@@@@@@         ",
"                     ......XXX+++@@@@@@         ",
"                  ......XXXooo+++@@@@@@         ",
"                  ......XXXooo+++@@@@@@         ",
"                  ......XXXooo+++@@@@@@         ",
"               ...XXXXXXoooOOO+++@@@@@@         ",
"               ...XXXXXXoooOOO+++@@@@@@         ",
"               ...XXXXXXoooOOO+++@@@@@@         ",
"               .........XXXOOO+++@@@@@@         ",
"               .........XXXOOO+++@@@@@@         ",
"               .........XXXOOO+++@@@@@@         ",
"                     ...XXX+++@@@@@@            ",
"                     ...XXX+++@@@@@@            ",
"                     ...XXX+++@@@@@@            ",
"                  ...XXXoooooo+++@@@@@@         ",
"                  ...XXXoooooo+++@@@@@@         ",
"                  ...XXXoooooo+++@@@@@@         "
};