/* XPM */
static char *result[] = {
/* columns rows colors chars-per-pixel */
"48 48 7 1 ",
"  c #3E8948",
". c #3F2832",
"X c #9C6754",
"o c #6D483B",
"O c #193C3E",
"+ c #265C42",
"@ c #3D6C43",
/* pixels */
"            ...XXXooooooOOOOOO+++               ",
"            ...XXXooooooOOOOOO+++               ",
"            ...XXXooooooOOOOOO+++               ",
"            ...XXXoooOOO++++++                  ",
"            ...XXXoooOOO++++++                  ",
"            ...XXXoooOOO++++++                  ",
"            ...oooOOO++++++                     ",
"            ...oooOOO++++++                     ",
"            ...oooOOO++++++                     ",
"            @@@...OOO+++                        ",
"            @@@...OOO+++                        ",
"            @@@...OOO+++                        ",
"            @@@...OOO+++++++++                  ",
"            @@@...OOO+++++++++                  ",
"            @@@...OOO+++++++++                  ",
"            ...ooooooOOOOOOOOO+++               ",
"            ...ooooooOOOOOOOOO+++               ",
"            ...ooooooOOOOOOOOO+++               ",
"            ...XXXOOOOOO+++++++++               ",
"            ...XXXOOOOOO+++++++++               ",
"            ...XXXOOOOOO+++++++++               ",
"            ...XXXOOO++++++                     ",
"            ...XXXOOO++++++                     ",
"            ...XXXOOO++++++                     ",
"            ...XXXOOO+++                        ",
"            ...XXXOOO+++                        ",
"            ...XXXOOO+++                        ",
"            ...oooOOO+++                        ",
"            ...oooOOO+++                        ",
"            ...oooOOO+++                        ",
"            @@@...OOO++++++                     ",
"            @@@...OOO++++++                     ",
"            @@@...OOO++++++                     ",
"            @@@...oooOOO++++++                  ",
"            @@@...oooOOO++++++                  ",
"            @@@...oooOOO++++++                  ",
"            @@@...XXXoooOOOOOO+++               ",
"            @@@...XXXoooOOOOOO+++               ",
"            @@@...XXXoooOOOOOO+++               ",
"            @@@...XXXOOO+++++++++               ",
"            @@@...XXXOOO+++++++++               ",
"            @@@...XXXOOO+++++++++               ",
"            @@@@@@...OOO+++                     ",
"            @@@@@@...OOO+++                     ",
"            @@@@@@...OOO+++                     ",
"            @@@...ooooooOOO+++                  ",
"            @@@...ooooooOOO+++                  ",
"            @@@...ooooooOOO+++                  "
};