/* XPM */
static char *a6325b36169a4c1784ae71271ca4372cdw2G6S2IdNCWz2we[] = {
/* columns rows colors chars-per-pixel */
"48 48 7 1 ",
"  c #3E8948",
". c #265C42",
"X c #193C3E",
"o c #6D483B",
"O c #9C6754",
"+ c #3F2832",
"@ c #3D6C43",
/* pixels */
"                                                ",
"                                                ",
"                                                ",
"                                                ",
"                                                ",
"                                                ",
"                                                ",
"                                                ",
"                                                ",
"                                                ",
"                                                ",
"                                                ",
"                                                ",
"                                                ",
"                                                ",
"...            ......               ......      ",
"...            ......               ......      ",
"...            ......               ......      ",
"XXX...      ...XXX...            ...XXX...   ...",
"XXX...      ...XXX...            ...XXX...   ...",
"XXX...      ...XXX...            ...XXX...   ...",
"XXX......   ...XXX......      ...XXXXXX......XXX",
"XXX......   ...XXX......      ...XXXXXX......XXX",
"XXX......   ...XXX......      ...XXXXXX......XXX",
"oooXXX......XXXoooXXX.........XXXooooooXXXXXXooo",
"oooXXX......XXXoooXXX.........XXXooooooXXXXXXooo",
"oooXXX......XXXoooXXX.........XXXooooooXXXXXXooo",
"ooooooXXXXXXoooooooooXXXXXXXXXooooooOOOooooooooo",
"ooooooXXXXXXoooooooooXXXXXXXXXooooooOOOooooooooo",
"ooooooXXXXXXoooooooooXXXXXXXXXooooooOOOooooooooo",
"oooOOOOOOoooooooooOOOoooooooooooooooOOOOOOOOOooo",
"oooOOOOOOoooooooooOOOoooooooooooooooOOOOOOOOOooo",
"oooOOOOOOoooooooooOOOoooooooooooooooOOOOOOOOOooo",
"oooOOOOOOOOOooooooOOOOOOOOOoooooooooOOOOOOOOOOOO",
"oooOOOOOOOOOooooooOOOOOOOOOoooooooooOOOOOOOOOOOO",
"oooOOOOOOOOOooooooOOOOOOOOOoooooooooOOOOOOOOOOOO",
"+++oooOOOOOO+++++++++OOOOOOooo+++++++++OOOOOO+++",
"+++oooOOOOOO+++++++++OOOOOOooo+++++++++OOOOOO+++",
"+++oooOOOOOO+++++++++OOOOOOooo+++++++++OOOOOO+++",
"@@@+++++++++@@@@@@@@@+++++++++@@@@@@@@@++++++@@@",
"@@@+++++++++@@@@@@@@@+++++++++@@@@@@@@@++++++@@@",
"@@@+++++++++@@@@@@@@@+++++++++@@@@@@@@@++++++@@@",
"@@@@@@@@@@@@@@@@@@@@@@@@@@@@@@@@@@@@@@@@@@@@@@@@",
"@@@@@@@@@@@@@@@@@@@@@@@@@@@@@@@@@@@@@@@@@@@@@@@@",
"@@@@@@@@@@@@@@@@@@@@@@@@@@@@@@@@@@@@@@@@@@@@@@@@",
"   @@@@@@@@@         @@@@@@@@@         @@@@@@   ",
"   @@@@@@@@@         @@@@@@@@@         @@@@@@   ",
"   @@@@@@@@@         @@@@@@@@@         @@@@@@   "
};