/* XPM */
static char *_d42ffba92ee46a8aff757f835f772a6mWYW7WsjKhBvqtwp[] = {
/* columns rows colors chars-per-pixel */
"48 48 7 1 ",
"  c #3E8948",
". c #265C42",
"X c #193C3E",
"o c #6D483B",
"O c #9C6754",
"+ c #3F2832",
"@ c #3D6C43",
/* pixels */
"                                                ",
"                                                ",
"                                                ",
"                                                ",
"                                                ",
"                                                ",
"                                                ",
"                                                ",
"                                                ",
"                                                ",
"                                                ",
"                                                ",
"                                                ",
"                                                ",
"                                                ",
"                                                ",
"                                                ",
"                                                ",
"                                                ",
"                                                ",
"                                                ",
"...      ...                                    ",
"...      ...                                    ",
"...      ...                                    ",
"XXX...   ......      ...                        ",
"XXX...   ......      ...                        ",
"XXX...   ......      ...                        ",
"XXX......XXX...   ...XXX...                     ",
"XXX......XXX...   ...XXX...                     ",
"XXX......XXX...   ...XXX...                     ",
"oooXXXXXXoooXXX...XXX...                        ",
"oooXXXXXXoooXXX...XXX...                        ",
"oooXXXXXXoooXXX...XXX...                        ",
"oooOOOOOOooooooXXX...                           ",
"oooOOOOOOooooooXXX...                           ",
"oooOOOOOOooooooXXX...                           ",
"+++oooOOOOOOoooXXX...                           ",
"+++oooOOOOOOoooXXX...                           ",
"+++oooOOOOOOoooXXX...                           ",
"@@@++++++ooooooXXX......                        ",
"@@@++++++ooooooXXX......                        ",
"@@@++++++ooooooXXX......                        ",
"@@@@@@@@@++++++oooXXX.........                  ",
"@@@@@@@@@++++++oooXXX.........                  ",
"@@@@@@@@@++++++oooXXX.........                  ",
"      @@@@@@+++OOOoooXXXXXXXXX...               ",
"      @@@@@@+++OOOoooXXXXXXXXX...               ",
"      @@@@@@+++OOOoooXXXXXXXXX...               "
};