/* XPM */
static char *result[] = {
/* columns rows colors chars-per-pixel */
"48 48 7 1 ",
"  c #3E8948",
". c #265C42",
"X c #193C3E",
"o c #6D483B",
"O c #9C6754",
"+ c #3F2832",
"@ c #3D6C43",
/* pixels */
"                                                ",
"                                                ",
"                                                ",
"                                                ",
"                                                ",
"                                                ",
"                                                ",
"                                                ",
"                                                ",
"                                                ",
"                                                ",
"                                                ",
"                                                ",
"                                                ",
"                                                ",
"                                                ",
"                                                ",
"                                                ",
"                                             ...",
"                                             ...",
"                                             ...",
"                                    ...   ......",
"                                    ...   ......",
"                                    ...   ......",
"                        ...      ............XXX",
"                        ...      ............XXX",
"                        ...      ............XXX",
"                     ...XXX.........XXX......XXX",
"                     ...XXX.........XXX......XXX",
"                     ...XXX.........XXX......XXX",
"                        ...XXX...XXXoooXXXXXXooo",
"                        ...XXX...XXXoooXXXXXXooo",
"                        ...XXX...XXXoooXXXXXXooo",
"                           ...XXXooooooOOOOOOooo",
"                           ...XXXooooooOOOOOOooo",
"                           ...XXXooooooOOOOOOooo",
"                           ...XXXoooOOOOOOooo+++",
"                           ...XXXoooOOOOOOooo+++",
"                           ...XXXoooOOOOOOooo+++",
"                        ......XXXoooooo++++++@@@",
"                        ......XXXoooooo++++++@@@",
"                        ......XXXoooooo++++++@@@",
"                  .........XXXooo++++++@@@@@@@@@",
"                  .........XXXooo++++++@@@@@@@@@",
"                  .........XXXooo++++++@@@@@@@@@",
"               ...XXXXXXXXXoooOOO+++@@@@@@@@@   ",
"               ...XXXXXXXXXoooOOO+++@@@@@@@@@   ",
"               ...XXXXXXXXXoooOOO+++@@@@@@@@@   "
};