/* XPM */
static char *result[] = {
/* columns rows colors chars-per-pixel */
"48 48 7 1 ",
"  c #3E8948",
". c #3F2832",
"X c #9C6754",
"o c #6D483B",
"O c #193C3E",
"+ c #265C42",
"@ c #3D6C43",
/* pixels */
"            ...XXXoooOOOOOOOOO+++               ",
"            ...XXXoooOOOOOOOOO+++               ",
"            ...XXXoooOOOOOOOOO+++               ",
"         @@@...oooOOO+++++++++                  ",
"         @@@...oooOOO+++++++++                  ",
"         @@@...oooOOO+++++++++                  ",
"   @@@@@@...XXXOOO++++++                        ",
"   @@@@@@...XXXOOO++++++                        ",
"   @@@@@@...XXXOOO++++++                        ",
"@@@......XXXoooOOO+++                           ",
"@@@......XXXoooOOO+++                           ",
"@@@......XXXoooOOO+++                           ",
"...XXX...XXXoooOOO+++                           ",
"...XXX...XXXoooOOO+++                           ",
"...XXX...XXXoooOOO+++                           ",
"oooOOOOOOoooOOO+++OOO+++                        ",
"oooOOOOOOoooOOO+++OOO+++                        ",
"oooOOOOOOoooOOO+++OOO+++                        ",
"OOO++++++OOO+++   +++OOO+++                     ",
"OOO++++++OOO+++   +++OOO+++                     ",
"OOO++++++OOO+++   +++OOO+++                     ",
"OOO+++   ++++++      +++                        ",
"OOO+++   ++++++      +++                        ",
"OOO+++   ++++++      +++                        ",
"+++      +++                                    ",
"+++      +++                                    ",
"+++      +++                                    ",
"                                                ",
"                                                ",
"                                                ",
"                                                ",
"                                                ",
"                                                ",
"                                                ",
"                                                ",
"                                                ",
"                                                ",
"                                                ",
"                                                ",
"                                                ",
"                                                ",
"                                                ",
"                                                ",
"                                                ",
"                                                ",
"                                                ",
"                                                ",
"                                                "
};