/* XPM */
static char *result[] = {
/* columns rows colors chars-per-pixel */
"48 48 200 2 ",
"   c black",
".  c #0E0200",
"X  c #210800",
"o  c #2B0801",
"O  c #300301",
"+  c #300600",
"@  c #572002",
"#  c #A51A03",
"$  c #972B05",
"%  c #C00C02",
"&  c #D50000",
"*  c #D60300",
"=  c #D80701",
"-  c #D90603",
";  c #DA0605",
":  c #DC0706",
">  c #D90A00",
",  c #DE0709",
"<  c #DE080A",
"1  c #DD1501",
"2  c #DF1505",
"3  c #DE1111",
"4  c #D91410",
"5  c #E00F09",
"6  c #E30F0D",
"7  c #E01307",
"8  c #E01F01",
"9  c #E01E02",
"0  c #E11A04",
"q  c #E1100B",
"w  c #E3170A",
"e  c #E41E09",
"r  c #E5180C",
"t  c #E61A0F",
"y  c #E60B16",
"u  c #E61413",
"i  c #EA1F13",
"p  c #EC1E16",
"a  c #EE1E1D",
"s  c #D92606",
"d  c #E02001",
"f  c #E12400",
"g  c #E42704",
"h  c #E42605",
"j  c #E92B0B",
"k  c #E92D09",
"l  c #EA2F08",
"z  c #E73304",
"x  c #E83F01",
"c  c #EC3F06",
"v  c #ED3C08",
"b  c #EE3D0B",
"n  c #F03B0F",
"m  c #EB2313",
"M  c #EB2713",
"N  c #EC2813",
"B  c #EE2E13",
"V  c #F12C1A",
"C  c #F22B1E",
"Z  c #EE3410",
"A  c #F13515",
"S  c #F4371A",
"D  c #F53F1A",
"F  c #EF1124",
"G  c #F11328",
"H  c #F4162E",
"J  c #F7172F",
"K  c #F71432",
"L  c #F91338",
"P  c #F51938",
"I  c #E2292B",
"U  c #F22522",
"Y  c #F52824",
"T  c #E6312F",
"R  c #F63624",
"E  c #F73A26",
"W  c #E23B3C",
"Q  c #F63432",
"!  c #F33836",
"~  c #EA4001",
"^  c #EC4104",
"/  c #ED4306",
"(  c #EC4404",
")  c #F14A08",
"_  c #F44D0D",
"`  c #F15007",
"'  c #F25F03",
"]  c #F35905",
"[  c #F45B06",
"{  c #F4520B",
"}  c #F55709",
"|  c #F34112",
" . c #F64515",
".. c #F7481C",
"X. c #F75B11",
"o. c #F46304",
"O. c #F56803",
"+. c #F66F05",
"@. c #F46C08",
"#. c #F76E08",
"$. c #F77206",
"%. c #F66016",
"&. c #FB6A1A",
"*. c #E54525",
"=. c #F95226",
"-. c #F3782F",
";. c #F47B2C",
":. c #EF7230",
">. c #FA5649",
",. c #EA5152",
"<. c #F66147",
"1. c #F9785E",
"2. c #ED6F69",
"3. c #E86F6D",
"4. c #F36470",
"5. c #F9864E",
"6. c #F49874",
"7. c #FB788B",
"8. c gray70",
"9. c #B4B4B4",
"0. c gray71",
"q. c #B6B6B6",
"w. c gray72",
"e. c #B9B9B9",
"r. c #BBBBBB",
"t. c #BCBCBC",
"y. c gray75",
"u. c #F88086",
"i. c #F9A483",
"p. c #F8A288",
"a. c #F8B793",
"s. c #F1A7A1",
"d. c #FDA6A2",
"f. c #F1ADA3",
"g. c #FCC0BE",
"h. c #FCB6C0",
"j. c #C0C0C0",
"k. c #C1C1C1",
"l. c gray76",
"z. c gray77",
"x. c #C5C5C5",
"c. c #C6C6C6",
"v. c gray79",
"b. c #CACACA",
"n. c #CBCBCB",
"m. c gray80",
"M. c #CECECE",
"N. c gray81",
"B. c #D0D0D0",
"V. c #D2D2D2",
"C. c LightGray",
"Z. c gray83",
"A. c #D7D7D7",
"S. c #D8D8D8",
"D. c gray85",
"F. c gray86",
"G. c gainsboro",
"H. c #DDDDDD",
"J. c #DFDFDF",
"K. c #F8CCCC",
"L. c #EBD7D6",
"P. c #E8DADA",
"I. c #FBDDD1",
"U. c #F9D8D6",
"Y. c #FDDDDF",
"T. c #FEE4DE",
"R. c #FEDEE1",
"E. c gray88",
"W. c #E1E1E1",
"Q. c gray89",
"!. c #E4E4E4",
"~. c gray90",
"^. c #E7E7E7",
"/. c gray91",
"(. c #E9E9E9",
"). c #EAEAEA",
"_. c gray92",
"`. c #ECECEC",
"'. c gray93",
"]. c #F1E1E1",
"[. c #FEE1E0",
"{. c #FEE2E1",
"}. c #FEE5E5",
"|. c #FDEDED",
" X c gray94",
".X c #F1F1F1",
"XX c gray95",
"oX c #F3F3F3",
"OX c #F4F4F4",
"+X c #F6F6F6",
"@X c #FFF6F3",
"#X c #FFF7F5",
"$X c #F9F9F9",
"%X c gray98",
"&X c #FBFBFB",
"*X c gray99",
"=X c #FDFDFD",
"-X c #FEFEFE",
";X c white",
":X c None",
/* pixels */
":X:X:X:X:X:X:X:X:X:X:X:X:X:X:X:X:X:X:X:X:X:X:X:X:X:X:X:X:X:X:X:X:X:X:X:X:X:X:X:X:X:X:X:X:X:X:X:X",
":X:X:X:X:X:X:X:X:X:X:X:X:X:X:X:X:X:X:X:X:X:X:X:X:X:X:X:X:X:X:X:X:X:X:X:X:X:X:X:X:X:X:X:X:X:X:X:X",
":X:X:X:X:X:X:X:X:X:X:X:X:X:X:X:X:X:X:X:X:X:X:X:X:X:X:X:X:X:X:X:X:X:X:X:X:X:X:X:X:X:X:X:X:X:X:X:X",
":X:X:X:X:X:X:X:X:X:X:X:X:X:X:X:X:X:X:X:X:X:X:X:X:X:X:X:X:X:X:X:X:X:X:X:X:X:X:X:X:X:X:X:X:X:X:X:X",
":X:X:X:X:X:X:X:X:X:X:X:X:X:X:X:X:X:X:X:X:X:X:X:X:X:X:X:X:X:X:X:X:X:X:X:X:X:X:X:X:X:X:X:X:X:X:X:X",
":X:X:X:X:X:X:X:X:X:X:X:X:X:X:X:X:X:X:X:X:X:X:X:X:X:X:X:X:X:X:X:X:X:X:X:X:X:X:X:X:X:X:X:X:X:X:X:X",
":X:X:X:X:X:X:X:X:X:X:X:X:X:X:X:X:X:X:X:X:X:X:X:X:X:X:X:X:X:X:X:X:X:X:X:X:X:X:X:X:X:X:X:X:X:X:X:X",
":X:X:X:X:X:X:X:X:X:X:X:X:X:X:X:X:X:X:X:X:X:X:X:X:X:X:X:X:X:X:X:X:X:X:X:X:X:X:X:X:X:X:X:X:X:X:X:X",
":X:X:X:X:X:X:X:X:X:X:X:X:X:X:X:X:X:X:X:X:X:X:X:X:X:X:X:X:X:X:X:X:X:X:X:X:X:X:X:X:X:X:X:X:X:X:X:X",
":X:X:X:X:X:X:X:X:X:X:X:X:X:X:X:X:X:X:X:X:X:X:X:X:X:X:X:X:X:X:X:X:X:X:X:X:X:X:X:X:X:X:X:X:X:X:X:X",
":X:X:X:X:X:X:X:X:X:X:X:X:X:X:X:X:X:X:X:X:X:X:X:X:X:X:X:X:X:X:X:X:X:X:X:X:X:X:X:X:X:X:X:X:X:X:X:X",
":X:X:X:X:X:X:X:X:X:X:X:X:X:X:X:X:X:X:X:X:X:X:X:X:X:X:X:X:X:X:X:X:X:X:X:X:X:X:X:X:X:X:X:X:X:X:X:X",
":X:X:X:X:X:X:X:X:X:X:X:X:X:X:X:X:X:X:X:X:X:X:X:X:X:X:X:X:X:X:X:X:X:X:X:X:X:X:X:X:X:X:X:X:X:X:X:X",
":X:X:X:X:X:X:X:X:X:X:X:X:X:X:X:X:X:X:X:Xn.W.W.W.W.E.n.:X:X:X:X:X:X:X:X:X:X:X:X:X:X:X:X:X:X:X:X:X",
":X:X:X:X:X:X:X:X:X:X:X:X:X:X:X:X:X:XW..X%X;X;X;X;X;X%X XJ.:X:X:X:X:X:X:X:X:X:X:X:X:X:X:X:X:X:X:X",
":X:X:X:X:X:X:X:X:X:X:X:X:X:X:X:XA.].{.[.}.;X;X;X;X;X;X;X=X(.C.:X:X:X:X:X:X:X:X:X:X:X:X:X:X:X:X:X",
":X:X:X:X:X:X:X:X:X:X:X:X:X:X:XP.d.>.E R Q u.Y.;X;X;X;X;X;X&X+XQ.:X:X:X:X:X:X:X:X:X:X:X:X:X:X:X:X",
":X:X:X:X:X:X:X:X:X:X:X:X:X:XL.1.=...D S C U ! g.;X;X;X;X;X;X*X$X~.:X:X:X:X:X:X:X:X:X:X:X:X:X:X:X",
":X:X:X:X:X:X:X:X:X:X:X:X:XH.p.&.X.| B m i M A <.#X;X;X;X;X;X;X*XOXA.:X:X:X:X:X:X:X:X:X:X:X:X:X:X",
":X:X:X:X:X:X:X:X:X:X:X:Xl.f.%.#.` k w 5 7 h / { i.;X;X;X;X;X;X;X$X'.:X:X:X:X:X:X:X:X:X:X:X:X:X:X",
":X:X:X:X:X:X:X:X:X:X:X:XE.6.@.O.( # O % 1 f ~ [ 5.@X;X;X;X;X;X;X&X&XF.:X:X:X:X:X:X:X:X:X:X:X:X:X",
":X:X:X:X:X:X:X:X:X:X:X:XOX:.$.o.c .   + d 9 g b  .T.;X;X;X;X;X;X=X$X/.:X:X:X:X:X:X:X:X:X:X:X:X:X",
":X:X:X:X:X:X:X:X:X:X:Xz.$X-.+.] v     X z e u a Y [.;X;X;X;X;X;X-X+X_.:X:X:X:X:X:X:X:X:X:X:X:X:X",
":X:X:X:X:X:X:X:X:X:X:Xm.;X;.' ^ l o   @ ) N G K J R.;X;X;X;X;X;X-XoXG.w.:X:X:X:X:X:X:X:X:X:X:X:X",
":X:X:X:X:X:X:X:X:X:X:Xm.;Xa.x 8 0 s $ } _ V H L 7.;X;X;X;X;X;X;X-XOXC.0.:X:X:X:X:X:X:X:X:X:X:X:X",
":X:X:X:X:X:X:X:X:X:X:Xm.;XI.*.> = 2 j n Z p F P h.;X;X;X;X;X;X;X-X XN.0.:X:X:X:X:X:X:X:X:X:X:X:X",
":X:X:X:X:X:X:X:X:X:X:Xb.=X;Xs.* & - q t r 6 y 4.;X;X;X;X;X;X;X;X&X^.n.q.:X:X:X:X:X:X:X:X:X:X:X:X",
":X:X:X:X:X:X:X:X:X:X:X:XOX;X;X3.4 ; , < : 3 ,.|.;X;X;X;X;X;X;X-XoXD.r.:X:X:X:X:X:X:X:X:X:X:X:X:X",
":X:X:X:X:X:X:X:X:X:X:X:X X;X;X;XU.2.T I W K.;X;X;X;X;X;X;X;X;X*X).m.8.:X:X:X:X:X:X:X:X:X:X:X:X:X",
":X:X:X:X:X:X:X:X:X:X:X:XM.*X;X;X;X;X;X;X;X;X;X;X;X;X;X;X;X;X*X.XF.k.0.:X:X:X:X:X:X:X:X:X:X:X:X:X",
":X:X:X:X:X:X:X:X:X:X:X:X:X'.;X;X;X;X;X;X;X;X;X;X;X;X;X;X;X*XXXJ.v.e.:X:X:X:X:X:X:X:X:X:X:X:X:X:X",
":X:X:X:X:X:X:X:X:X:X:X:X:Xj.+X;X;X;X;X;X;X;X;X;X;X;X;X;X*X.XE.B.t.:X:X:X:X:X:X:X:X:X:X:X:X:X:X:X",
":X:X:X:X:X:X:X:X:X:X:X:X:X:XZ.;X;X;X;X;X;X;X;X;X;X;X;X*X XG.n.j.8.:X:X:X:X:X:X:X:X:X:X:X:X:X:X:X",
":X:X:X:X:X:X:X:X:X:X:X:X:X:X:Xc. X=X;X;X;X;X;X;X;X=X+X`.F.n.j.9.:X:X:X:X:X:X:X:X:X:X:X:X:X:X:X:X",
":X:X:X:X:X:X:X:X:X:X:X:X:X:X:X:X:XH.%X=X;X*X&X&X&XOXW.V.x.w.:X:X:X:X:X:X:X:X:X:X:X:X:X:X:X:X:X:X",
":X:X:X:X:X:X:X:X:X:X:X:X:X:X:X:X:X:Xt.S.!. X/.^./.~.b.y.8.:X:X:X:X:X:X:X:X:X:X:X:X:X:X:X:X:X:X:X",
":X:X:X:X:X:X:X:X:X:X:X:X:X:X:X:X:X:X:X:X:X:X:X:X:X:X:X:X:X:X:X:X:X:X:X:X:X:X:X:X:X:X:X:X:X:X:X:X",
":X:X:X:X:X:X:X:X:X:X:X:X:X:X:X:X:X:X:X:X:X:X:X:X:X:X:X:X:X:X:X:X:X:X:X:X:X:X:X:X:X:X:X:X:X:X:X:X",
":X:X:X:X:X:X:X:X:X:X:X:X:X:X:X:X:X:X:X:X:X:X:X:X:X:X:X:X:X:X:X:X:X:X:X:X:X:X:X:X:X:X:X:X:X:X:X:X",
":X:X:X:X:X:X:X:X:X:X:X:X:X:X:X:X:X:X:X:X:X:X:X:X:X:X:X:X:X:X:X:X:X:X:X:X:X:X:X:X:X:X:X:X:X:X:X:X",
":X:X:X:X:X:X:X:X:X:X:X:X:X:X:X:X:X:X:X:X:X:X:X:X:X:X:X:X:X:X:X:X:X:X:X:X:X:X:X:X:X:X:X:X:X:X:X:X",
":X:X:X:X:X:X:X:X:X:X:X:X:X:X:X:X:X:X:X:X:X:X:X:X:X:X:X:X:X:X:X:X:X:X:X:X:X:X:X:X:X:X:X:X:X:X:X:X",
":X:X:X:X:X:X:X:X:X:X:X:X:X:X:X:X:X:X:X:X:X:X:X:X:X:X:X:X:X:X:X:X:X:X:X:X:X:X:X:X:X:X:X:X:X:X:X:X",
":X:X:X:X:X:X:X:X:X:X:X:X:X:X:X:X:X:X:X:X:X:X:X:X:X:X:X:X:X:X:X:X:X:X:X:X:X:X:X:X:X:X:X:X:X:X:X:X",
":X:X:X:X:X:X:X:X:X:X:X:X:X:X:X:X:X:X:X:X:X:X:X:X:X:X:X:X:X:X:X:X:X:X:X:X:X:X:X:X:X:X:X:X:X:X:X:X",
":X:X:X:X:X:X:X:X:X:X:X:X:X:X:X:X:X:X:X:X:X:X:X:X:X:X:X:X:X:X:X:X:X:X:X:X:X:X:X:X:X:X:X:X:X:X:X:X",
":X:X:X:X:X:X:X:X:X:X:X:X:X:X:X:X:X:X:X:X:X:X:X:X:X:X:X:X:X:X:X:X:X:X:X:X:X:X:X:X:X:X:X:X:X:X:X:X",
":X:X:X:X:X:X:X:X:X:X:X:X:X:X:X:X:X:X:X:X:X:X:X:X:X:X:X:X:X:X:X:X:X:X:X:X:X:X:X:X:X:X:X:X:X:X:X:X"
};