/* XPM */
static char *result[] = {
/* columns rows colors chars-per-pixel */
"48 48 14 1 ",
"  c #251F2F",
". c #523526",
"X c #7F593F",
"o c #3F3D5E",
"O c gray37",
"+ c #A37646",
"@ c #A97D72",
"# c #D3A665",
"$ c #666A8B",
"% c #505BAF",
"& c gray67",
"* c #DBB6A9",
"= c white",
"- c None",
/* pixels */
"------------   ---------------------------------",
"------------$$$  -------------------------------",
"----------- $$$$   ---       -------------------",
"---------- $    ##+ - o$$$$oo  -----------------",
"--------- oo- o +##+ o$$$$$$$$o ----------------",
"-------- oo  oo ++#  o$$$$$$$$$o ---------------",
"-------- oo oo - + o o$$$$$$$$$$o --------------",
"------- $o -o --   o$ o$$$$$$$$$$o -------------",
"------ $$$   ---- o$$$ oooo$$$$$$o -------------",
"----- $$$    ---- o$$$o o$$ooooooo -------------",
"---- o$$ - o----- o$$$$o$$$$$$$$oo -------------",
"---- oo -- o----- oo$$$o$$o   @@  --------------",
"------  -- o ----- oo$$o$o*=%***% --------------",
"-----------  ------ oo$o$o$$$$$$o --------------",
"------------ ------- oooo$o$$$$o ---------------",
"------------------      oooo  $  ---------------",
"----------------- $$$$      =  oo  -------------",
"----------------- oo$$oo + =&  o$$  ------------",
"----------------    o$$$o =&&  o$$ @ -----------",
"--------------  @**@     =&&& o$$$ @@ ----------",
"------------- @***** =&&&O  O= $$$ @** ---------",
"------------ ******** =&& $     $    ** --------",
"----------- ***@****@  =& $ ***  XXXX * --------",
"----------- **** @@@  o =O  @@@*@ ..XX  --------",
"----------- @        oo$ &&&  ***@ XX.  --------",
"-----------  X.X. -      &&=  @@**@ .. ---------",
"------------XX.X --- +++ &= ## @**@ . ----------",
"----------- XX.X  --     =           -----------",
"----------- .X  @@  o$$$  $$o$$oo --------------",
"------------  ***@ o$$$o$$$$o$$ooo -------------",
"----------- ***** o$$$o$$$$$o$$$ooo ------------",
"------------ ***@ $$$$o$$$$$o$$$$oo ------------",
"-------------    o$$$o$$$$$oooo$$$oo------------",
"-------------    o$$$o$$$ooo  oooooo -----------",
"------------- .XX $$o$$$oo   ooooooo    --------",
"------------ X.XX. oo$$oo -- oooooo . . --------",
"------------ .XX.XXX o -------    . . . --------",
"------------ .XX.XX.  ---------- ..  . ---------",
"------------ .XX.XX. ----------- . . . ---------",
"------------.XXX.X. ------------ . . . ---------",
"------------.XX.XX. -------------  . . ---------",
"------------   .X. --------------  .    --------",
"----------- ooo   ----------------  oooo  ------",
"----------- $$$oo ---------------- ooooooo -----",
"---------- $$$$$o ---------------- ooooooo -----",
"---------- $$$$$  ----------------         -----",
"----------      . ---------------- ....... -----",
"---------- XXXXX -------------------------------"
};