/* XPM */
static char *result[] = {
/* columns rows colors chars-per-pixel */
"48 48 13 1 ",
"  c #251F2F",
". c #523526",
"X c #7F593F",
"o c #3F3D5E",
"O c gray37",
"+ c #A37646",
"@ c #A97D72",
"# c #D3A665",
"$ c #666A8B",
"% c gray67",
"& c #DBB6A9",
"* c white",
"= c None",
/* pixels */
"============    ================================",
"============$$$$   ===       ===================",
"=========== $   ##+ = o$$$$oo  =================",
"========== $ oo +##+ o$$$$$$$$o ================",
"========== o oo ++#  o$$$$$$$$$o ===============",
"========= oo o = + o o$$$$$$$$$$o ==============",
"========= o  o =   o$ o$$$$$$$$$$o =============",
"======== $o oo == o$$$ oooo$$$$$$o =============",
"======= $$$   === o$$$o o$$ooooooo =============",
"====== $$$   ==== o$$$$o$$$$$$$$oo =============",
"===== o$$ =  ==== oo$$$o$$o   @@  ==============",
"===== oo ==  ====  o$$$o$o@& @&&  ==============",
"=======  == o ===== oo$o$o$$$$$$o ==============",
"============o ====== oooo$o$$$$o ===============",
"============  =======   oooo$$$ ================",
"==================                ==============",
"=================  $$$oo ++ *  o$$  ============",
"=================   $$$$o  *%  o$$ @ ===========",
"===============  &&@ $$$$ *%% o$$$ @@ ==========",
"============== @&&&&     *%%% $$$$ @&& =========",
"============= @&&&&& *%%%O  O* o$o   && ========",
"============ &&&&&&&@ *%% $     o XXX & ========",
"============&&&@ @@    *% $ &&&  XX.XX  ========",
"============&&&&@    oo *O  @@@&@ .XX.  ========",
"============@     =  oo$ %%%  &&&@ X.. =========",
"============ X.X. ==     %%*  @@&&@ . ==========",
"============XX.XX == +++ %* ## @&&@  ===========",
"============.XX.X  =     *          ============",
"============..X  @@  o$$  $$o$$oo ==============",
"============   &&&@ o$$$o$$$o$$$oo =============",
"============ &&&&& o$$$o$$$$o$$$$oo ============",
"============= &&&@ $$$o$$$$$o$$$$oo ============",
"==============    o$$$o$$$$ooooo$$oo============",
"==============   o$$$o$$$ooo  oooooo ===========",
"============= .XX $$o$$$oo   ooooooo    ========",
"============= .XXX oo$$oo === oooooo. . ========",
"============ .XXX.XX oo ======= oo  . . ========",
"============ .XX.XX. o =========  . . . ========",
"============ .XX.XX.  ========== ..  . =========",
"============.XXX.X.. ============ .  . =========",
"============.XX.XX. =============  . . =========",
"============   .X. ==============  .    ========",
"============ooo   ================  oooo  ======",
"=========== $$$oo ================ ooooooo =====",
"========== $$$$$o ================ ooooooo =====",
"========== $$$$$  ================         =====",
"==========      . ================ ....... =====",
"========== XXXXX ==============================="
};