/* XPM */
static char *result[] = {
/* columns rows colors chars-per-pixel */
"48 48 14 1 ",
"  c #251F2F",
". c #523526",
"X c #7F593F",
"o c #3F3D5E",
"O c gray37",
"+ c #A37646",
"@ c #A97D72",
"# c #D3A665",
"$ c #666A8B",
"% c #505BAF",
"& c gray67",
"* c #DBB6A9",
"= c white",
"- c None",
/* pixels */
"------------   ---------------------------------",
"----------  $$$   ---      ---------------------",
"--------- $$$  ##+ - o$$$oo  -------------------",
"-------- $$  o +##+ o$$$$$$$o ------------------",
"------- oo - o ++#  o$$$$$$$$o -----------------",
"------- oo  oo  + o o$$$$$$$$$o ----------------",
"------ $$o oo -   o$ o$$$$$$$$$o ---------------",
"------ $$    --- o$$$ ooo$$$$$$o ---------------",
"----- $$$    --- o$$$o o$ooooooo ---------------",
"---- o$$  oo --- o$$$$o$$$$$$$oo ---------------",
"---- oo -- o --- oo$$$o$o   @@  ----------------",
"----- o -- oo --  o$$$o$@* @**  ----------------",
"------  -- oo --- oo$$o$*=%***% ----------------",
"----------- o ---- oo$o$$$$$$$o ----------------",
"------------  ----- ooooo$$$$o -----------------",
"------------------     ooo  $    ---------------",
"----------------- $$o     =   o$$ --------------",
"---------------- $$$$$o  =&  o$$$  -------------",
"---------------    o$$$o=&&  o$$ @@  -----------",
"-------------  @**@     &&& o$$$ @@** ----------",
"------------ @***** =&&&  O= o$$ @**** ---------",
"----------- ******** =&&$     o     ** ---------",
"---------- ***@****@  =&$ ***  XXX.X * ---------",
"---------- **** @@@  o =  @@@*@ ..XXX  ---------",
"----------  X.X. -      &=  @@**@ X.. ----------",
"---------- XX..XX - +++ = ## @**@ .. -----------",
"---------- .XX..X                   ------------",
"----------- .XX  @@ o$$ o$$o$$o ----------------",
"------------   ***@ $$$$$$$o$$$o ---------------",
"------------ ***** $$$$o$$o$$$$oo --------------",
"------------- ***@ $$$o$$$o$$$$$oo -------------",
"--------------    $$$o$$$ooooo$$ooo ------------",
"-------------   o$$$o$$$oo  oooooooo -----------",
"------------ X.X  $o$$$oo  oooooooo     --------",
"------------ X.XX. o$$oo -- oooooo .. . --------",
"------------ .XXX.X oooo---- oooo  .. . --------",
"------------ .XX.XX oo  ----- oo . .. . --------",
"------------ XXX.XX.  --------  .. . . ---------",
"----------- .XXX.X.. ---------- .. . . ---------",
"----------- .XX.XX. ------------  .. . ---------",
"----------- .XX.XX -------------  .. . ---------",
"-----------    .X. -------------  ..    --------",
"----------- ooo   ---------------   oooo  ------",
"---------- $$$$oo --------------- oooooooo -----",
"--------- $$$$$$o --------------- oooooooo -----",
"--------- $$$$$$  ---------------          -----",
"---------       . --------------- ........ -----",
"--------- XXXXXX -------------------------------"
};