/* XPM */
static char *result[] = {
/* columns rows colors chars-per-pixel */
"48 48 14 1 ",
"  c #251F2F",
". c #523526",
"X c #7F593F",
"o c #3F3D5E",
"O c gray37",
"+ c #A37646",
"@ c #A97D72",
"# c #D3A665",
"$ c #666A8B",
"% c #505BAF",
"& c gray67",
"* c #DBB6A9",
"= c white",
"- c None",
/* pixels */
"------------    --------------------------------",
"----------- $$$$   ---      --------------------",
"---------- $$   ##+ - o$$$oo  ------------------",
"--------- $$ oo +##+ o$$$$$$$o -----------------",
"--------- o  oo ++#  o$$$$$$$$o ----------------",
"-------- oo  o - + o o$$$$$$$$$o ---------------",
"-------- o - o -   o$ o$$$$$$$$$o --------------",
"------- $o  oo -- o$$$ ooo$$$$$$o --------------",
"------ $$$  o --- o$$$o $$ooooooo --------------",
"------ $$     --- o$$$$o$$$$$$$oo --------------",
"----- $$ -   ---- oo$$$o$o   @@  ---------------",
"---- o$$ - o ----  o$$$oo@* @**  ---------------",
"---- oo -- o ----- oo$$oo*=%***% ---------------",
"----- o -- oo ----- oo$oo$$$$$$o ---------------",
"------  -- oo ------ ooo$o$$$$o ----------------",
"----------- o -------   ooo$$$ -----------------",
"------------  -----             ----------------",
"-----------------  $$$oo++    o$   -------------",
"-----------------   $$$$ + =  o$$ @  -----------",
"---------------  **@ $$$$ =& o$$$ @@@ ----------",
"-------------- @****@ $$ =&& $$$$ @*** ---------",
"------------- @*****    =&&& $$$o    ** --------",
"------------ @****** =&&O  O= oo XX.X * --------",
"------------ *****@@  =& $     o X.XXX  --------",
"----------- ****@ -  oo O  @@@*@ .XXX.  --------",
"----------- @     -     &&&  ***@ XX.. ---------",
"-----------  X.X. -- +++&&=  @@**@ .. ----------",
"----------- XX.XX --    &=    @**@   -----------",
"----------- .XX.X  - o$$= $o$$     -------------",
"----------- ..X  @@ o$$$ $$o$$$oo --------------",
"------------   ***@ $$$o$$$o$$$$oo -------------",
"------------ ***** $$$o$$$$o$$$$oo -------------",
"------------- ***@ $$$o$$$ooooo$$oo ------------",
"--------------    $$$o$$ooo  ooooooo -----------",
"------------- .XX $$o$$$o   oooooooo    --------",
"------------- .XXX oo$$o --- oooooo . . --------",
"------------- XXX.. oooo----- oooo .. . --------",
"------------ .XXX.XX oo ------ oo  .. . --------",
"------------ .XX.XX. o --------  . .. . --------",
"------------ .XX.XX.  --------- .. . . ---------",
"----------- .XXX.X.. ----------- . . . ---------",
"----------- .XX.XX. ------------  .. . ---------",
"-----------    .X. -------------  ..    --------",
"----------- ooo   ---------------   oooo  ------",
"---------- $$$$oo --------------- oooooooo -----",
"--------- $$$$$$o --------------- oooooooo -----",
"--------- $$$$$$  ---------------          -----",
"---------       . --------------- ........ -----"
};