/* XPM */
static char *result[] = {
/* columns rows colors chars-per-pixel */
"48 48 15 1 ",
"  c black",
". c #1E1926",
"X c #251F2F",
"o c #523526",
"O c #7F593F",
"+ c #3F3D5E",
"@ c gray37",
"# c #A37646",
"$ c #A97D72",
"% c #D3A665",
"& c #666A8B",
"* c gray67",
"= c #DBB6A9",
"- c white",
"; c None",
/* pixels */
";;;;;;;;;;;;XXX;;;;;;;;;;;;;;;;;;;;;;;;;;;;;;;;;",
";;;;;;;;;;;X&&&XXX;;;XXXXXXX;;;;;;;;;;;;;;;;;;;;",
";;;;;;;;;;X&XXX%%#X;X+&&&&++XX;;;;;;;;;;;;;;;;;;",
";;;;;;;;;X&&++X#%%#X+&&&&&&&&+X;;;;;;;;;;;;;;;;;",
";;;;;;;;;X+X++X##%XX+&&&&&&&&&+X;;;;;;;;;;;;;;;;",
";;;;;;;;X++X+X;X#X+X+&&&&&&&&&&+X;;;;;;;;;;;;;;;",
";;;;;;;;X+X;+X;XXX+&X+&&&&&&&&&&+X;;;;;;;;;;;;;;",
";;;;;;;X&+XX+X;;X+&&&X++++&&&&&&+X;;;;;;;;;;;;;;",
";;;;;;X&&&XXX;;;X+&&&+X+&&+++++++X;;;;;;;;;;;;;;",
";;;;;;X&&XXXX;;;X+&&&&+&&&&&&&&++X;;;;;;;;;;;;;;",
";;;;;X&&X;XX;;;;X++&&&+&&+XXX$$XX;;;;;;;;;;;;;;;",
";;;;X+&&X;X+;;;;XX+&&&+&+$=X$==XX;;;;;;;;;;;;;;;",
";;;;;X+X;;X+X;;;;;X++&+&+&&&&&&+X;;;;;;;;;;;;;;;",
";;;;;;XX;;X+X;;;;;;X++++&+&&&&+X;;;;;;;;;;;;;;;;",
";;;;;;;;;;;XX;;;;;;;XXX++++&&&X;;;;;;;;;;;;;;;;;",
";;;;;;;;;;;;X;;;;;XXXXXXXXXXXXXX;;;;;;;;;;;;;;;;",
";;;;;;;;;;;;;;;;;X&&&++X##XXXX+&XXX;;;;;;;;;;;;;",
";;;;;;;;;;;;;;;;XXX&&&&+X#X-XX+&&X$X;;;;;;;;;;;;",
";;;;;;;;;;;;;;XX==$X&&&&&X-*X+&&&X$$X;;;;;;;;;;;",
";;;;;;;;;;;;;X$====$X&&&X-**X&&&&X$==X;;;;;;;;;;",
";;;;;;;;;;;;X$=====XXXXX-***X&+&+XXX==X;;;;;;;;;",
";;;;;;;;;;; $======X-***@XX@-X++XOOoX=X;;;;;;;;;",
";;;;;;;;;;; =====$$XX-**X&XXXXX+XOoOOXX;;;;;;;;;",
";;;;;;;;;;;.==$XXXXX+X-*X&X===XXOOoOOXX;;;;;;;;;",
";;;;;;;;;;;X===$X;XX++X-@XX$$$=$XoOOoXX;;;;;;;;;",
";;;;;;;;;;;XXXXXX;XXXXXX***XX===$XOOoX;;;;;;;;;;",
";;;;;;;;;;;XOoOoX;;X###X**-XX$$==$XoX;;;;;;;;;;;",
";;;;;;;;;;;XOoOOX;;XXXXX*-XXXX$==$XX;;;;;;;;;;;;",
";;;;;;;;;;;XOOoOXX;X+&&X-X&+&&XXXXX;;;;;;;;;;;;;",
";;;;;;;;;;;XoOXX$$X+&&&XX&&+&&&++X;;;;;;;;;;;;;;",
";;;;;;;;;;;;XX===$X&&&+&&&&+&&&&++X;;;;;;;;;;;;;",
";;;;;;;;;;;;=====X&&&+&&&&&+&&&&++X;;;;;;;;;;;;;",
";;;;;;;;;;;;X===$X&&&+&&&&+++++&&++X;;;;;;;;;;;;",
";;;;;;;;;;;;;XXXX&&&+&&&+++XX+++++++;;;;;;;;;;;;",
";;;;;;;;;;;;XoOOX&&+&&&++XXX++++++++XXX;;;;;;;;;",
";;;;;;;;;;;;XoOOoX++&&++X;;;X++++++XXoX;;;;;;;;;",
";;;;;;;;;;;;XOOOoOOX++X;;;;;;;X++XXoXoX;;;;;;;;;",
";;;;;;;;;;;;XOOoOOoX+X;;;;;;;;;XXoXoXoX;;;;;;;;;",
";;;;;;;;;;;;oOOoOOoXX;;;;;;;;;;;XoXoXoX;;;;;;;;;",
";;;;;;;;;;;;oOOoOOoX;;;;;;;;;;;;XoXoXoX;;;;;;;;;",
";;;;;;;;;;;;oOOoOOX;;;;;;;;;;;;;;XXoXoX;;;;;;;;;",
";;;;;;;;;;;;XXXoOoX;;;;;;;;;;;;;;XXoXXXX;;;;;;;;",
";;;;;;;;;;;;+++XXX;;;;;;;;;;;;;;;;XX++++XX;;;;;;",
";;;;;;;;;;;X&&&++X;;;;;;;;;;;;;;;;X+++++++X;;;;;",
";;;;;;;;;;X&&&&&+X;;;;;;;;;;;;;;;;X+++++++X;;;;;",
";;;;;;;;;;X&&&&&XX;;;;;;;;;;;;;;;;XXXXXXXXX;;;;;",
";;;;;;;;;;XXXXXXoX;;;;;;;;;;;;;;;;XoooooooX;;;;;",
";;;;;;;;;;XOOOOOX;;;;;;;;;;;;;;;;;;;;;;;;;;;;;;;"
};