/* XPM */
static char *result[] = {
/* columns rows colors chars-per-pixel */
"48 48 14 1 ",
"  c #251F2F",
". c #523526",
"X c #7F593F",
"o c #3F3D5E",
"O c gray37",
"+ c #786366",
"@ c #A37646",
"# c #A97D72",
"$ c #D3A665",
"% c #666A8B",
"& c gray67",
"* c #DBB6A9",
"= c white",
"- c None",
/* pixels */
"------------   ---------------------------------",
"----------- %%%   ---       --------------------",
"---------- %   $$@ - o%%%%oo  ------------------",
"--------- %%oo @$$@ o%%%%%%%%o -----------------",
"--------- o oo @@$  o%%%%%%%%%o ----------------",
"-------- oo o - @ o o%%%%%%%%%%o ---------------",
"-------- o -o -   o% o%%%%%%%%%%o --------------",
"------- %o  o -- o%%% oooo%%%%%%o --------------",
"------ %%%   --- o%%%o o%%ooooooo --------------",
"----- %%%   ---- o%%%%o%%%%%%%%oo --------------",
"---- o%% - o---- oo%%%o%%o   ##  ---------------",
"---- oo -- o----  o%%%o%o#* #**  ---------------",
"------  -- o ----- oo%o%o%%%%%%o ---------------",
"-----------  ------ oooo%o%%%%o ----------------",
"------------ -------   oooo%%% -----------------",
"-----------------                ---------------",
"----------------  %%%oo @@ =  o%%  -------------",
"----------------   %%%%o  =&  o%% # ------------",
"--------------  **# %%%% =&& o%%% ## -----------",
"------------- #****     =&&& %%%% #** ----------",
"------------ #***** =&&&O  O= o%o   ** ---------",
"----------- *******# =&& %     o XX. * ---------",
"----------- **# ##    =& % ***  XX.XX  ---------",
"----------- ***#    oo =O  ###*# .XX.  ---------",
"-----------      -  oo% &&&  ***# XX. ----------",
"----------- X.X. --     &&=  ##**# . -----------",
"----------- X.XX -- @@@ &= $$ #**#  ------------",
"----------- XX.X  -     =          -------------",
"----------- .X  ##  o%%  %%o%%oo ---------------",
"------------  ***# o%%%o%%%o%%%oo --------------",
"----------- +**** o%%%o%%%%o%%%%oo -------------",
"------------ ***# %%%o%%%%%o%%%%oo -------------",
"-------------    o%%%o%%%%ooooo%%oo ------------",
"-------------   o%%%o%%%ooo  ooooooo------------",
"------------ .XX %%o%%%oo   oooooooo   ---------",
"------------ .XX. oo%%oo --- oooooo  . ---------",
"------------ XXX.XX oo ------- oo  . . ---------",
"------------ XX.XX. o ---------  . . . ---------",
"------------.XX.XX.  ----------- . . . ---------",
"------------.XX.XX. ------------ . . . ---------",
"------------.XX.XX --------------  . . ---------",
"------------   .X. --------------  .    --------",
"------------ooo   ----------------  oooo  ------",
"----------- %%%oo ---------------- ooooooo -----",
"---------- %%%%%o ---------------- ooooooo -----",
"---------- %%%%%  ----------------         -----",
"----------      . ---------------- ....... -----",
"---------- XXXXX -------------------------------"
};