/* XPM */
static char *result[] = {
/* columns rows colors chars-per-pixel */
"48 48 187 2 ",
"   c #030507",
".  c #040904",
"X  c #050609",
"o  c #070A0A",
"O  c #3D3727",
"+  c #5D1418",
"@  c #4F403B",
"#  c #47422A",
"$  c #2C2A5D",
"%  c #362F5B",
"&  c #3E315B",
"*  c #36325F",
"=  c #2B2B63",
"-  c #302E61",
";  c #363361",
":  c #5A4B49",
">  c #594A5E",
",  c #664C5E",
"<  c #79575B",
"1  c #6C574E",
"2  c #7F6F4A",
"3  c #7F714F",
"4  c #73625F",
"5  c #7A645A",
"6  c #4C4160",
"7  c #5B4C62",
"8  c #524664",
"9  c #5D5063",
"0  c #4E5078",
"q  c #55567B",
"w  c #6E5C65",
"e  c #7F6660",
"r  c #E5252A",
"t  c #836F49",
"y  c #806E47",
"u  c #83714B",
"i  c #8B784F",
"p  c #9C6956",
"a  c #996A5A",
"s  c #8C7951",
"d  c #887257",
"f  c #967A59",
"g  c #81675D",
"h  c #A06957",
"j  c #97796B",
"k  c #827578",
"l  c #866D67",
"z  c #A36A67",
"x  c #A07B6D",
"c  c #B27462",
"v  c #A17D70",
"b  c #EE726F",
"n  c #ED7470",
"m  c #98875B",
"M  c #A9845B",
"N  c #B68D59",
"B  c #B98F5B",
"V  c #B68B56",
"C  c #A5925F",
"Z  c #A8945F",
"A  c #BB915B",
"S  c #97876B",
"D  c #AA8B6D",
"F  c #B08E6C",
"G  c #A69263",
"H  c #A99562",
"J  c #AE9963",
"K  c #A69866",
"L  c #B29E64",
"P  c #B6996C",
"I  c #AA8B7F",
"U  c #BB9D73",
"Y  c #B7A366",
"T  c #B9A565",
"R  c #BDA966",
"E  c #BCA56C",
"W  c #BDA969",
"Q  c #BFB46E",
"!  c #BFB470",
"~  c #C5985A",
"^  c #CD9D5A",
"/  c #C89758",
"(  c #D6A55B",
")  c #DCAA5B",
"_  c #D8A657",
"`  c #DDB05D",
"'  c #E4AE55",
"]  c #E4AE5B",
"[  c #E6B055",
"{  c #C19E79",
"}  c #C0AD66",
"|  c #C2AD6C",
" . c #CFAA6E",
".. c #DAAD62",
"X. c #D3AA68",
"o. c #C6B366",
"O. c #C4B36B",
"+. c #C9B56B",
"@. c #CEBB6C",
"#. c #C8B564",
"$. c #D1BD6D",
"%. c #C1A079",
"&. c #CEAC74",
"*. c #D6A77D",
"=. c #CDBD71",
"-. c #C5B671",
";. c #D5BE75",
":. c #D4C16E",
">. c #CEC071",
",. c #D4C272",
"<. c #DAC673",
"1. c #DDCA74",
"2. c #D5C57B",
"3. c #DDCB78",
"4. c #E3CE76",
"5. c #E2CE78",
"6. c #E3D17D",
"7. c #E1D076",
"8. c #565882",
"9. c #65638C",
"0. c #716F96",
"q. c #797391",
"w. c #948196",
"e. c #938199",
"r. c #9E9F9C",
"t. c #9EA29D",
"y. c #A2A49E",
"u. c #A3A3A2",
"i. c #BCBABA",
"p. c #B4B3B3",
"a. c #CB9A8C",
"s. c #D89E89",
"d. c #D6A788",
"f. c #DCB683",
"g. c #DEB392",
"h. c #D2B598",
"j. c #CEA58D",
"k. c #E6B181",
"l. c #EEB69D",
"z. c #EEB89E",
"x. c #E5B398",
"c. c #E6AE98",
"v. c #D2ACA4",
"b. c #D1B1A7",
"n. c #F2ACA4",
"m. c #EEBAA4",
"M. c #EBB7A9",
"N. c #F5BEB4",
"B. c #F2BFA8",
"V. c #DCCE83",
"C. c #DEC297",
"Z. c #DCD087",
"A. c #E4D585",
"S. c #E5DA8C",
"D. c #E6D88C",
"F. c #E8DC92",
"G. c #E3C398",
"H. c #EBE29B",
"J. c #EDC8A9",
"K. c #F1C1AD",
"L. c #F5CBBC",
"P. c #F4C4B3",
"I. c #FAD1BF",
"U. c #C3BFC4",
"Y. c #CAC5C7",
"T. c #C9C5C9",
"R. c #D1CCCF",
"E. c #D2CDD1",
"W. c #DFD7DE",
"Q. c #EECAC4",
"!. c #F9CEC1",
"~. c #FAD3C6",
"^. c #F9D3C8",
"/. c #F5D2C6",
"(. c #E0D7DF",
"). c #F8D9D2",
"_. c #F7D8D2",
"`. c #F5E3DC",
"'. c #F5E4DB",
"]. c #EDE4EC",
"[. c #E8E4E9",
"{. c #F0E7EF",
"}. c #F7E8E0",
"|. c #F8F0EF",
" X c #EEE4F0",
".X c #F4F1F1",
"XX c None",
/* pixels */
"XXXXXXXXXXXXXXXXXXXXXXXXXXXXXXXXXXXXXX! O.! Q ! ! ! ! ! ! XXXXXXXXXXXXXXXXXXXXXXXXXXXXXXXXXXXXXX",
"XXXXXXXXXXXXXXXXXXXXXXXXXXXXXXXXXXXXQ o.#.#.o.o.#.o.#.#.} O.XXXXXXXXXXXXXXXXXXXXXXXXXXXXXXXXXXXX",
"XXXXXXXXXXXXXXXXXXXXXXXXXXXXXX-.O.O.,.1.4.4.4.4.4.4.3.4.3.<.O.O.O.XXXXXXXXXXXXXXXXXXXXXXXXXXXXXX",
"XXXXXXXXXXXXXXXXXXXXXXXXXXXXXX@.@.@.1.4.4.4.4.4.4.4.4.4.4.3.$.@.@.XXXXXXXXXXXXXXXXXXXXXXXXXXXXXX",
"XXXXXXXXXXXXXXXXXXXXXXXXXXO.+.5.4.4.4.4.4.4.4.4.4.4.4.4.4.4.4.4.4.o.Q XXXXXXXXXXXXXXXXXXXXXXXXXX",
"XXXXXXXXXXXXXXXXXXXXXXXX! @.<.5.4.4.:.@.4.4.4.4.4.4.4.4.4.1.@.V.F.2.>.Q XXXXXXXXXXXXXXXXXXXXXXXX",
"XXXXXXXXXXXXXXXXXXXXXXXXO.$.5.5.6.6.$.#.4.4.4.4.4.4.4.4.4.3.@.V.S.7.<.O.XXXXXXXXXXXXXXXXXXXXXXXX",
"XXXXXXXXXXXXXXXXXXXXXXXX+.:.5.F.S.4.$.#.4.4.4.4.1.#.:.4.4.6.H.2.@.4.:.+.XXXXXXXXXXXXXXXXXXXXXXXX",
"XXXXXXXXXXXXXXXXXXXXXX-.$.4.4.V.Z.S.,.o.A.A.S.A.5.o.2.A.A.S.S.,.#.4.1.,.-.XXXXXXXXXXXXXXXXXXXXXX",
"XXXXXXXXXXXXXXXXXXXXO.@.5.4.4.o.2.H.2.o.H.H.H.H.F.o.V.H.H.F.7.$.+.4.4.7.@.O.XXXXXXXXXXXXXXXXXXXX",
"XXXXXXXXXXXXXXXXXXXXQ R L +.4.o.;.A.3.<.;.2.6.6.5.<.,.=.A.6.1.>.o.1.@.J R O.XXXXXXXXXXXXXXXXXXXX",
"XXXXXXXXXXXXXXXXXXXXO.R C | 1.} @.1.4.4.o.:.<.4.5.5.$.o.1.4.4.$.o.1.O.G R O.XXXXXXXXXXXXXXXXXXXX",
"XXXXXXXXXXXXXXXXXXXXO.R G Y O.C W 5.5.1.| o.o.<.4.4.$.#.1.4.5.@.O.#.Y H W O.XXXXXXXXXXXXXXXXXXXX",
"XXXXXXXXXXXXXXXXXXXXO.R C Y o.Z Y ,.,.,.;.&.Y @.,.;.;.f.-.+.,.+.#.O.Y G W -.XXXXXXXXXXXXXXXXXXXX",
"XXXXXXXXXXXXXXXXXXXXO.R G Y O.Z Y o.#.+.l.d.G | O.#.f.m.P L O.O.O.#.Y H W -.XXXXXXXXXXXXXXXXXXXX",
"XXXXXXXXXXXXXXXXXXXXK H G T o.Q Y Z R &.I.K.x.P J O.G.I.x.d.H R #.O.R G G K XXXXXXXXXXXXXXXXXXXX",
"XXXXXXXXXXXXXXXXXXXXm C G T #.R E U E | J.J.B.j.P R C.~.K.x.U E | O.R G m m XXXXXXXXXXXXXXXXXXXX",
"XXXXXXXXXXXXXXXXXXXX2 s G Y | G U z.U H O.C.~.B.g.G h.~.~.L.l.%.H -.T G s u XXXXXXXXXXXXXXXXXXXX",
"XXXXXXXXXXXXXXXXXXXXXXXXG H L G %.l.5 O # S ~.L.B.d.l : : l l.%.G L J G XXXXXXXXXXXXXXXXXXXXXXXX",
"XXXXXXXXXXXXXXXXXXXXXXXXG G G G { l.: o   4 ^.^.!.m.1 o o @ z.%.G G G G XXXXXXXXXXXXXXXXXXXXXXXX",
"XXXXXXXXXXXXXXXXXXXXXXXXG m y G { l.'.[.. 4 ^.^.^.^.e o {.'.m.U G u f G XXXXXXXXXXXXXXXXXXXXXXXX",
"XXXXXXXXXXXXXXXXXXXXXXXXm s y G { l.'.|.+ z ^.^.^.^.z + .X}.m.%.G t s m XXXXXXXXXXXXXXXXXXXXXXXX",
"XXXXXXXXXXXXXXXXXXXXXXXX2 y 3 K { l.'.|.r b ~.~.^.^.n r |.`.z.U G t u u XXXXXXXXXXXXXXXXXXXXXXXX",
"XXXXXXXXXXXXXXXXXXXXXXXXXX3 2 s F l.L.).n.N.~.~.^.^.P.n.).^.m.F s u u XXXXXXXXXXXXXXXXXXXXXXXXXX",
"XXXXXXXXXXXXXXXXXXXXXXXXXXXX3 i D c.N.!.^.^.^.^.^.^.^.^.!.P.c.D u 3 XXXXXXXXXXXXXXXXXXXXXXXXXXXX",
"XXXXXXXXXXXXXXXXXXXXXXXXXXXXXXXXXXc s.m.^.^.^.^.^.^.~.~.m.d.c XXXXXXXXXXXXXXXXXXXXXXXXXXXXXXXXXX",
"XXXXXXXXXXXXXXXXXXXXXXXXXXXXXXXXXXI *.k.w.e.e.g.g.e.e.w.k.k.w.XXXXXXXXXXXXXXXXXXXXXXXXXXXXXXXXXX",
"XXXXXXXXXXXXXXXXXXXXXXXXXXXXXXXXXXy. ...= = = B ~ = = = ....u.XXXXXXXXXXXXXXXXXXXXXXXXXXXXXXXXXX",
"XXXXXXXXXXXXXXXXXXXXXXXXXXXXXXu.i.].q.; = = = B ~ = = = ; 9.].i.y.XXXXXXXXXXXXXXXXXXXXXXXXXXXXXX",
"XXXXXXXXXXXXXXXXXXXXXXXXXXXXXXp.T.{.0.= 7 7 7 ~ / > 7 7 = 9.].Y.p.XXXXXXXXXXXXXXXXXXXXXXXXXXXXXX",
"XXXXXXXXXXXXXXXXXXXXXXXXXXu.u.[. X X0.; ] ] [ [ [ ' ' ] ; 9. X X].t.y.XXXXXXXXXXXXXXXXXXXXXXXXXX",
"XXXXXXXXXXXXXXXXXXXXXXXXXXt.u. X(.b.9.* ] N 5 / ( 5 N ] ; 8.U.(.].u.y.XXXXXXXXXXXXXXXXXXXXXXXXXX",
"XXXXXXXXXXXXXXXXXXXXXXXXXXu.u.[.E.u.q - ..a $ / / % a ..; 0 u.E. Xu.u.XXXXXXXXXXXXXXXXXXXXXXXXXX",
"XXXXXXXXXXXXXXXXXXXXXXXXu.Y.].].R.u.q = = g ] ' ' _ e = = 0 u.E. X XE.u.XXXXXXXXXXXXXXXXXXXXXXXX",
"XXXXXXXXXXXXXXXXXXXXXXXXu.Y.{.].R.u.k w = 7 f ^ ) f 9 = w k u.E.{.{.R.u.XXXXXXXXXXXXXXXXXXXXXXXX",
"XXXXXXXXXXXXXXXXXXXXXXXXy.Y.{.].R.y. .' - = - ~ ~ = = = _ X.u.E.].{.T.u.XXXXXXXXXXXXXXXXXXXXXXXX",
"XXXXXXXXXXXXXXXXXXXXXXXXv b._.Q.v.j / ' M M M 4 < G f M [ ( v v.Q.^.b.x XXXXXXXXXXXXXXXXXXXXXXXX",
"XXXXXXXXXXXXXXXXXXXXXXXXp a.L.M.a.p / [ ( ( X.8 6 ..( ( [ ^ a a.M.L.v.a XXXXXXXXXXXXXXXXXXXXXXXX",
"XXXXXXXXXXXXXXXXXXXXXXXXXXa p h < & M ) $ $ = = = = $ $ ' V & < h h a XXXXXXXXXXXXXXXXXXXXXXXXXX",
"XXXXXXXXXXXXXXXXXXXXXXXXXXXXXXXX, & M ( $ = = = = = = = _ V & , XXXXXXXXXXXXXXXXXXXXXXXXXXXXXXXX",
"XXXXXXXXXXXXXXXXXXXXXXXXXXXXXXXXXX& M ) $ $ = $ = $ = $ ) V & XXXXXXXXXXXXXXXXXXXXXXXXXXXXXXXXXX",
"XXXXXXXXXXXXXXXXXXXXXXXXXXXXXXXXXXA _ ' B B A B B B B A [ ) A XXXXXXXXXXXXXXXXXXXXXXXXXXXXXXXXXX",
"XXXXXXXXXXXXXXXXXXXXXXXXXXXXXXXXXX` ....) ....) ` ........) ` XXXXXXXXXXXXXXXXXXXXXXXXXXXXXXXXXX",
"XXXXXXXXXXXXXXXXXXXXXXXXXXXXXXXXXXXXy.y.y.y.y.XXXXt.y.y.y.y.XXXXXXXXXXXXXXXXXXXXXXXXXXXXXXXXXXXX",
"XXXXXXXXXXXXXXXXXXXXXXXXXXXXXXXXXXXXy.u.R.i.u.XXXXy.i.R.u.u.XXXXXXXXXXXXXXXXXXXXXXXXXXXXXXXXXXXX",
"XXXXXXXXXXXXXXXXXXXXXXXXXXXXXXXXXXXXt.u.[.Y.r.XXXXt.Y.[.u.t.XXXXXXXXXXXXXXXXXXXXXXXXXXXXXXXXXXXX",
"XXXXXXXXXXXXXXXXXXXXXXXXXXXXXXXXXXXX.       . XXXX    X o o XXXXXXXXXXXXXXXXXXXXXXXXXXXXXXXXXXXX",
"XXXXXXXXXXXXXXXXXXXXXXXXXXXXXXXXXXXXXX.   . . XXXX. . . . . XXXXXXXXXXXXXXXXXXXXXXXXXXXXXXXXXXXX"
};