/* XPM */
static char *result[] = {
/* columns rows colors chars-per-pixel */
"48 48 114 2 ",
"   c black",
".  c #0C0C0C",
"X  c #130E0C",
"o  c #191411",
"O  c #15101F",
"+  c #1D1F1F",
"@  c #221815",
"#  c #211A16",
"$  c #261B17",
"%  c #28201C",
"&  c #32241E",
"*  c #231C33",
"=  c #2D1A38",
"-  c #2E2520",
";  c #312722",
":  c #342621",
">  c #342A24",
",  c #352A24",
"<  c #3C3029",
"1  c #29203D",
"2  c #323536",
"3  c #570A2C",
"4  c #41342D",
"5  c #64483D",
"6  c #2E2442",
"7  c #322948",
"8  c #3B3152",
"9  c #423956",
"0  c #723F43",
"q  c #593370",
"w  c #604D42",
"e  c #6B4E42",
"r  c #6E5247",
"t  c #745D50",
"y  c #7C624C",
"u  c #4B4260",
"i  c #5A526E",
"p  c #64696B",
"a  c #726469",
"s  c #805A00",
"d  c #946A1F",
"f  c #9D7229",
"g  c #AD1457",
"h  c #9D244B",
"j  c #803749",
"k  c #8A2659",
"l  c #A2345C",
"z  c #BA3455",
"x  c #8A3463",
"c  c #D51A5E",
"v  c #FF1744",
"b  c #D81B60",
"n  c #825351",
"m  c #805F67",
"M  c #9B4978",
"N  c #B34972",
"B  c #917161",
"V  c #916175",
"C  c #9B6B7F",
"Z  c #A07565",
"A  c #EC407A",
"S  c #DF6A7F",
"D  c #FFB300",
"F  c #C8943C",
"G  c #E4A23D",
"H  c #AE8B77",
"J  c #C88F79",
"K  c #C99079",
"L  c #737C80",
"P  c #78798A",
"I  c #AC5E8E",
"U  c #A17688",
"Y  c #BA7397",
"T  c #C45E87",
"R  c #DD5F81",
"E  c #CA7E9F",
"W  c #FF6E92",
"Q  c #808080",
"!  c #BE8D8A",
"~  c #959EA1",
"^  c #A0A5B7",
"/  c #A4B1B5",
"(  c #D29983",
")  c #D19C87",
"_  c #D59E89",
"`  c #EE8990",
"'  c #E89B93",
"]  c #F49499",
"[  c #D9A18B",
"{  c #DCA38D",
"}  c #D8A48C",
"|  c #D9A58C",
" . c #DCAE96",
".. c #E0AB93",
"X. c #E2AE96",
"o. c #E8B99F",
"O. c #DA89A8",
"+. c #FF89AC",
"@. c #CE93D8",
"#. c #FFBDCE",
"$. c #C7D2D6",
"%. c #FFDEE7",
"&. c #CEE3EB",
"*. c #D6E5EB",
"=. c #DEE6E8",
"-. c #C8E8F5",
";. c #C2EDFF",
":. c #DEEFF5",
">. c #EAEFF1",
",. c #E5F8FF",
"<. c #F1F9FB",
"1. c #F5F9FA",
"2. c white",
"3. c None",
/* pixels */
"3.3.3.3.3.3.3.3.3.3.3.3.3.3.3.3.3.3.3.3.3.3.3.3.3.3.3.3.3.3.3.3.3.3.3.3.3.3.3.3.3.3.3.3.3.3.3.3.",
"3.3.3.3.3.3.3.3.3.3.3.3.3.3.3.3.3.3.3.3.3.3.3.3.3.3.3.q q 3.3.3.3.3.3.3.3.3.3.3.3.3.3.3.3.3.3.3.",
"3.3.3.3.3.3.3.3.3.3.3.3.3.3.3.3.3.3.3.3.3.3.x I I x M R R q 3.3.3.3.3.3.3.3.3.3.3.3.3.3.3.3.3.3.",
"3.3.3.3.3.3.3.3.3.3.3.3.3.3.3.3.3.3.3.3.q x +.+.z +.R z q R z 3.3.3.3.3.3.3.3.3.3.3.3.3.3.3.3.3.",
"3.3.3.3.3.3.3.3.3.3.3.3.3.3.3.3.3.3.3.3.q z +.z +.+.z z z q q 3.3.3.3.3.3.3.3.3.3.3.3.3.3.3.3.3.",
"3.3.3.3.3.3.3.3.3.3.3.3.3.3.3.3.3.3.3.3.q M q R x x l I I N x 3.3.3.3.3.3.3.3.3.3.3.3.3.3.3.3.3.",
"3.3.3.3.3.3.3.3.3.3.3.3.3.3.3.3.3.3.3.q q x q z q z x +.+.R z q 3.3.3.3.3.3.3.3.3.3.3.3.3.3.3.3.",
"3.3.3.3.3.3.3.3.3.3.3.3.3.3.3.3.3.3.3.q = ! o.U o.C T z z q 3.3.3.3.3.3.3.3.3.3.3.3.3.3.3.3.3.3.",
"3.3.3.3.3.3.3.3.3.3.3.3.3.3.3.3.3.3.3.3.  X.o.J { { q q q x q 3.3.3.3.3.3.3.3.3.3.3.3.3.3.3.3.3.",
"3.3.3.3.3.3.3.3.3.3.3.3.3.3.3.3.3.3.3.3.  } @ {   { V   q 3.3.3.3.3.3.3.3.3.3.3.3.3.3.3.3.3.3.3.",
"3.3.3.3.3.3.3.3.3.3.3.3.3.3.3.3.3.3.3.3.3.B ) [ @.o.Z = q 3.3.3.3.3.3.3.3.3.3.3.3.3.3.3.3.3.3.3.",
"3.3.3.3.3.3.3.3.3.3.3.3.3.3.3.3.3.3.3.3.3.5 ..o.c o.  3.3.3.3.3.3.3.3.3.3.3.3.3.3.3.3.3.3.3.3.3.",
"3.3.3.3.3.3.3.3.3.3.3.3.3.3.3.3.3.3.3.3.3.e {  .S _ & 3.3.3.3.3.3.3.3.3.3.3.3.3.3.3.3.3.3.3.3.3.",
"3.3.3.3.3.3.3.3.3.3.3.3.3.3.3.3.3.3.3.3.3.3.: o.  J s   3.3.3.3.3.3.3.3.3.3.3.3.3.3.3.3.3.3.3.3.",
"3.3.3.3.3.3.3.3.3.3.3.3.3.3.3.3.3.3.3.3.3.      D D 9 8     3.3.3.3.3.3.3.3.3.3.3.3.3.3.3.3.3.3.",
"3.3.3.3.3.3.3.3.3.3.3.3.3.3.3.3.3.3.3.  t F 1 1 9 9 y G | H % 3.3.3.3.3.3.3.3.3.3.3.3.3.3.3.3.3.",
"3.3.3.3.3.3.3.3.3.3.3.3.3.3.3.3.3.3.3.  K f 1 i b 1 d K o.W W   3.3.3.3.3.3.3.3.3.3.3.3.3.3.3.3.",
"3.3.3.3.3.3.3.3.3.3.3.3.3.3.3.3.3.3.  o.  h i b v v d K W %.2.  3.3.3.3.3.3.3.3.3.3.3.3.3.3.3.3.",
"3.3.3.3.3.3.3.3.3.3.3.3.3.3.3.3.3.3.  W   k 8 b b b 1 D J W W   3.3.3.3.3.3.3.3.3.3.3.3.3.3.3.3.",
"3.3.3.3.3.3.3.3.3.3.3.3.3.3.3.3.3.  t o.  1 8 8 b 1 1 1   } o.  3.3.3.3.3.3.3.3.3.3.3.3.3.3.3.3.",
"3.3.3.3.3.3.3.3.3.3.3.3.3.3.3.3.  w H }   * 9 u 9 7 6   5 o.o.  3.3.3.3.3.3.3.3.3.3.3.3.3.3.3.3.",
"3.3.3.3.3.3.3.3.3.3.3.3.3.3.3.3.  { (                     o.o.$ 3.3.3.3.3.3.3.3.3.3.3.3.3.3.3.3.",
"3.3.3.3.3.3.3.3.3.3.3.3.3.3.3.3., { r 3.  3 A A A g 3.3.  } o.; 3.3.3.3.3.3.3.3.3.3.3.3.3.3.3.3.",
"3.3.3.3.3.3.3.3.3.3.3.3.3.3.3.3.X X.' j   E O.O.Y p 3.3.3.> o.4 3.3.3.3.3.3.3.3.3.3.3.3.3.3.3.3.",
"3.3.3.3.3.3.3.3.3.3.3.3.3.3.3.3.  { ` W   $.$.$.$.$.  3.3.o o.- 3.3.3.3.3.3.3.3.3.3.3.3.3.3.3.3.",
"3.3.3.3.3.3.3.3.3.3.3.3.3.3.3.3.3.  m #.  *.$.1.$.1.  3.3.< o.# 3.3.3.3.3.3.3.3.3.3.3.3.3.3.3.3.",
"3.3.3.3.3.3.3.3.3.3.3.3.3.3.3.3.3.  j   $.,.$.1.1.1.+ 3.3.j W j 3.3.3.3.3.3.3.3.3.3.3.3.3.3.3.3.",
"3.3.3.3.3.3.3.3.3.3.3.3.3.3.3.3.  o.o.  $.,.$.$.$.1.. 3.3.m #.Q 3.3.3.3.3.3.3.3.3.3.3.3.3.3.3.3.",
"3.3.3.3.3.3.3.3.3.3.3.3.3.3.3.3.3.      $.:.p p =.=.>.    n ] 0 3.3.3.3.3.3.3.3.3.3.3.3.3.3.3.3.",
"3.3.3.3.3.3.3.3.3.3.3.3.3.3.3.3.3.3.3.  $.$.,.  $.1.1.$.  o.o.  3.3.3.3.3.3.3.3.3.3.3.3.3.3.3.3.",
"3.3.3.3.3.3.3.3.3.3.3.3.3.3.3.3.3.3.3.  *.*.,.  $.=.<.=.  o.o.  3.3.3.3.3.3.3.3.3.3.3.3.3.3.3.3.",
"3.3.3.3.3.3.3.3.3.3.3.3.3.3.3.3.3.3.3.  $.*.$.$.  &.-.1.  } J   3.3.3.3.3.3.3.3.3.3.3.3.3.3.3.3.",
"3.3.3.3.3.3.3.3.3.3.3.3.3.3.3.3.3.3.3.  ,.,.,.$.  $.;.1.$.} o.  3.3.3.3.3.3.3.3.3.3.3.3.3.3.3.3.",
"3.3.3.3.3.3.3.3.3.3.3.3.3.3.3.3.3.3.3.  $.~ *.$.  $.:.,.*.2   3.3.3.3.3.3.3.3.3.3.3.3.3.3.3.3.3.",
"3.3.3.3.3.3.3.3.3.3.3.3.3.3.3.3.3.3.3.  $.p ,.,.  $.,.i 8 L   3.3.3.3.3.3.3.3.3.3.3.3.3.3.3.3.3.",
"3.3.3.3.3.3.3.3.3.3.3.3.3.3.3.3.3.3.3.3.  ^ ,.$.2.  ,.1 1 L   3.3.3.3.3.3.3.3.3.3.3.3.3.3.3.3.3.",
"3.3.3.3.3.3.3.3.3.3.3.3.3.3.3.3.3.3.3.3.  P $.$.2.  *.,.,.L   3.3.3.3.3.3.3.3.3.3.3.3.3.3.3.3.3.",
"3.3.3.3.3.3.3.3.3.3.3.3.3.3.3.3.3.3.3.3.  ,.,.$.2.  $.,.,.L   3.3.3.3.3.3.3.3.3.3.3.3.3.3.3.3.3.",
"3.3.3.3.3.3.3.3.3.3.3.3.3.3.3.3.3.3.3.3.3./ *.$.Q   a p p 3.3.3.3.3.3.3.3.3.3.3.3.3.3.3.3.3.3.3.",
"3.3.3.3.3.3.3.3.3.3.3.3.3.3.3.3.3.3.3.3.3.p $.$.  #.j   3.3.3.3.3.3.3.3.3.3.3.3.3.3.3.3.3.3.3.3.",
"3.3.3.3.3.3.3.3.3.3.3.3.3.3.3.3.3.3.3.3.3.3.        j 3.3.3.3.3.3.3.3.3.3.3.3.3.3.3.3.3.3.3.3.3.",
"3.3.3.3.3.3.3.3.3.3.3.3.3.3.3.3.3.3.3.3.3.3.j j     3.3.3.3.3.3.3.3.3.3.3.3.3.3.3.3.3.3.3.3.3.3.",
"3.3.3.3.3.3.3.3.3.3.3.3.3.3.3.3.3.3.3.3.3.3.        3.3.3.3.3.3.3.3.3.3.3.3.3.3.3.3.3.3.3.3.3.3.",
"3.3.3.3.3.3.3.3.3.3.3.3.3.3.3.3.3.3.3.3.3.    m j   3.3.3.3.3.3.3.3.3.3.3.3.3.3.3.3.3.3.3.3.3.3.",
"3.3.3.3.3.3.3.3.3.3.3.3.3.3.3.3.3.3.3.3.3.      W   3.3.3.3.3.3.3.3.3.3.3.3.3.3.3.3.3.3.3.3.3.3.",
"3.3.3.3.3.3.3.3.3.3.3.3.3.3.3.3.3.3.3.3.3.          3.3.3.3.3.3.3.3.3.3.3.3.3.3.3.3.3.3.3.3.3.3.",
"3.3.3.3.3.3.3.3.3.3.3.3.3.3.3.3.3.3.3.3.3.3.O 9 9 O 3.3.3.3.3.3.3.3.3.3.3.3.3.3.3.3.3.3.3.3.3.3.",
"3.3.3.3.3.3.3.3.3.3.3.3.3.3.3.3.3.3.3.3.3.3.        3.3.3.3.3.3.3.3.3.3.3.3.3.3.3.3.3.3.3.3.3.3."
};