/* XPM */
static char *result[] = {
/* columns rows colors chars-per-pixel */
"48 48 103 2 ",
"   c #120B1B",
".  c #131313",
"X  c #1B1213",
"o  c #1B1B1A",
"O  c #251115",
"+  c #2C1316",
"@  c #2D1519",
"#  c #23181E",
"$  c #3C1316",
"%  c #371C1E",
"&  c #20201F",
"*  c #322A1D",
"=  c #171724",
"-  c #1E1621",
";  c #1A1728",
":  c #17182D",
">  c #19192C",
",  c #151831",
"<  c #371F21",
"1  c #381E21",
"2  c #381629",
"3  c #301A29",
"4  c #262626",
"5  c #292524",
"6  c #2C2A23",
"7  c #272728",
"8  c #2A2A2A",
"9  c #352223",
"0  c #3A2425",
"q  c #3A292A",
"w  c #353535",
"e  c #3C3C3B",
"r  c #461D25",
"t  c #4B1D23",
"y  c #4E1D28",
"u  c #551B24",
"i  c #591A24",
"p  c #631A24",
"a  c #6A1A24",
"s  c #6F1D28",
"d  c #731C27",
"f  c #741C28",
"g  c #7D1E2A",
"h  c #422227",
"j  c #4A2125",
"k  c #4E242B",
"l  c #512027",
"z  c #54232B",
"x  c #5C242B",
"c  c #4B2D30",
"v  c #6F2F2C",
"b  c #7C252F",
"n  c #73282F",
"m  c #644A17",
"M  c #474033",
"N  c #7F5520",
"B  c #821E27",
"V  c #881D27",
"C  c #851E29",
"Z  c #891D2A",
"A  c #951E2A",
"S  c #8C212C",
"D  c #97212B",
"F  c #99212C",
"G  c #A4212D",
"H  c #BC262F",
"J  c #A62231",
"K  c #A82131",
"L  c #B42332",
"P  c #BE2632",
"I  c #A93833",
"U  c #C4232F",
"Y  c #C32331",
"T  c #884737",
"R  c #837034",
"E  c #A76F26",
"W  c #AB674E",
"Q  c #C64642",
"!  c #BC8021",
"~  c #F8A31E",
"^  c #DA9428",
"/  c #FBC926",
"(  c #FEC62C",
")  c #EDC13A",
"_  c #F0C03C",
"`  c #BF8664",
"'  c #BF8F6D",
"]  c #CEAF58",
"[  c #E4B94B",
"{  c #E59A67",
"}  c #E49C6C",
"|  c #E8A979",
" . c #7A8499",
".. c #91A1BB",
"X. c #BCA3A7",
"o. c #CDAD8D",
"O. c #D1AB8E",
"+. c #EBB284",
"@. c #EFCB9E",
"#. c #F6C89E",
"$. c #F3C9A1",
"%. c #DCC9C5",
"&. c None",
/* pixels */
"&.&.&.&.&.&.&.&.&.&.&.&.&.&.&.&.&.&.&.&.&.&.&.&.&.&.&.&.&.&.&.&.( [ [ &.&.&.&.&.&.&.&.&.&.&.&.&.",
"&.&.&.&.&.&.&.&.&.&.&.&.&.&.&.&.&.&.&.&.&.&.&.&.&.&.&.&.&.&.&.&.[ ] ] &.&.&.&.&.&.&.&.&.&.&.&.&.",
"&.&.&.&.&.&.&.&.&.&.&.&.&.&.&.&.&.&.&.&.&.&.&.&.&.&.&.&.&.&.&.&.&.&.&.) &.&.&.&.&.&.&.&.&.&.&.&.",
"&.&.&.&.&.&.&.&.&.&.&.&.&.&.&.&.&.&.&.&.&.&.&.&.. 5 ^ ^ T 6 e &.&.&.&._ &.&.&.&.&.&.&.&.&.&.&.&.",
"&.&.&.&.&.&.&.&.&.&.&.&.&.&.&.&.&.&.&.&.&.&.& . 4 5 5 5 E ! * e e R R ) &.&.&.&.&.&.&.&.&.&.&.&.",
"&.&.&.&.&.&.&.&.&.&.&.&.&.&.&.&.&.&.&.&.&.&.o . 4 5 5 5 E ! & e e R R ) &.&.&.&.&.&.&.&.&.&.&.&.",
"&.&.&.&.&.&.&.&.&.&.&.&.&.&.&.&.&.&.&.&.&.b S V H H h h & m ~ / / [ [ &.&.&.&.&.&.&.&.&.&.&.&.&.",
"&.&.&.&.&.&.&.&.&.&.&.&.&.&.&.&.&.&.&.&.&.i i u p p i x 6 6 * M M &.&.&.&.&.&.&.&.&.&.&.&.&.&.&.",
"&.&.&.&.&.&.&.&.&.&.&.&.&.&.&.&.&.&.&.&.&.g g g G G a a t r j k k &.&.&.&.&.&.&.&.&.&.&.&.&.&.&.",
"&.&.&.&.&.&.&.&.&.&.&.&.&.&.&.&.&.&.&.Z Z Z Z Z Y Y a a u i i i l &.&.&.&.&.&.&.&.&.&.&.&.&.&.&.",
"&.&.&.&.&.&.&.&.&.&.&.&.&.&.&.&.&.&.&.u y i i i u i i i X.%.T @.i &.&.&.&.&.&.&.&.&.&.&.&.&.&.&.",
"&.&.&.&.&.&.&.&.&.&.&.&.&.&.&.&.&.&.V V Z Z L Y Y U a a W | #.Y u &.&.&.&.&.&.&.&.&.&.&.&.&.&.&.",
"&.&.&.&.&.&.&.&.&.&.&.&.&.&.&.&.&.&.&.&.&.&.&.&.&.j 9 9 v I Q Y &.&.&.&.&.&.&.&.&.&.&.&.&.&.&.&.",
"&.&.&.&.&.&.&.&.&.&.&.&.&.&.&.&.&.&.&.&.&.&.&.&.&.7 7 4 j B G Y &.&.&.&.&.&.&.&.&.&.&.&.&.&.&.&.",
"&.&.&.&.&.&.&.&.&.&.&.&.&.&.&.&.&.&.&.&.&.&.&.&.&.7 4 4 u g G Y &.&.&.&.&.&.&.&.&.&.&.&.&.&.&.&.",
"&.&.&.&.&.&.&.&.&.&.&.&.&.&.&.&.&.&.Y Y Y Y A B + 4 4 4 0 x n K &.&.&.&.&.&.&.&.&.&.&.&.&.&.&.&.",
"&.&.&.&.&.&.&.&.&.&.&.&.&.&.&.&.&.Y Y Y Y Y A Z Z . & 5 4 8 e i u &.&.&.&.&.&.&.&.&.&.&.&.&.&.&.",
"&.&.&.&.&.&.&.&.&.&.&.&.&.&.&.&.A Y Y Y Y Z Z Z u . 4 # 4 4 7 e u i i z &.&.&.&.&.&.&.&.&.&.&.&.",
"&.&.&.&.&.&.&.&.&.&.&.&.&.&.&.&.Z Z Z Z Z Z p i . . t t i u u l u i i i u &.&.&.&.&.&.&.&.&.&.&.",
"&.&.&.&.&.&.&.&.&.&.&.&.&.&.&.&.&.i i i i i O . . u g g S B S U Y B B X u &.&.&.&.&.&.&.&.&.&.&.",
"&.&.&.&.&.&.&.&.&.&.&.&.&.&.&.&.&.z y u u y X . . u g B C Z Z U U B B X z &.&.&.&.&.&.&.&.&.&.&.",
"&.&.&.&.&.&.&.&.&.&.&.&.&.&.&.&.&.&.e 5 5 . . . . i g g C Z C U Y B B o &.&.&.&.&.&.&.&.&.&.&.&.",
"&.&.&.&.&.&.&.&.&.&.&.&.&.&.&.&.&.&.Z Z Z X . . . i B g C S Z U Y F D x &.&.&.&.&.&.&.&.&.&.&.&.",
"&.&.&.&.&.&.&.&.&.&.&.&.&.&.&.&.&.&.Y P Y Z + . . . t t i i i i i i i z &.&.&.&.&.&.&.&.&.&.&.&.",
"&.&.&.&.&.&.&.&.&.&.&.&.&.&.&.&.&.&.Y P Y Z + . . . t t i i i i i i i z &.&.&.&.&.&.&.&.&.&.&.&.",
"&.&.&.&.&.&.&.&.&.&.&.&.&.&.&.&.&.&.Y Y Y Z + . ; :     O 5 5 5 e c k z &.&.&.&.&.&.&.&.&.&.&.&.",
"&.&.&.&.&.&.&.&.&.&.&.&.&.&.&.&.&.&.&.D D $ - = , , 2 2 r y y r k k k u 4 &.&.&.&.&.&.&.&.&.&.&.",
"&.&.&.&.&.&.&.&.&.&.&.&.&.&.&.&.&.&.&.n x . ; : , 3 y y p a a V V f f t + &.&.&.&.&.&.&.&.&.&.&.",
"&.&.&.&.&.&.&.&.&.&.&.&.&.&.&.&.&.&.&.4 4 . ; : , u u i f Z Z Y U F F i i &.&.&.&.&.&.&.&.&.&.&.",
"&.&.&.&.&.&.&.&.&.&.&.&.&.&.&.&.&.&.&.7 7 X  .....Z p i u i i i i u u a P u &.&.&.&.&.&.&.&.&.&.",
"&.&.&.&.&.&.&.&.&.&.&.&.&.&.&.&.&.&.&.#.$.} } { i Z p p f Z V Y U D F a P u &.&.&.&.&.&.&.&.&.&.",
"&.&.&.&.&.&.&.&.&.&.&.&.&.&.&.&.&.&.&.$.$.+.} } y f i i p s s A S g g i S i &.&.&.&.&.&.&.&.&.&.",
"&.&.&.&.&.&.&.&.&.&.&.&.&.&.&.&.&.&.< O.O.o.' ` y u j r u u u u i u u t z z &.&.&.&.&.&.&.&.&.&.",
"&.&.&.&.&.&.&.&.&.&.&.&.&.&.&.&.&.&.< O.O.o.' ` r t j j u i u i u u t t z z &.&.&.&.&.&.&.&.&.&.",
"&.&.&.&.&.&.&.&.&.&.&.&.&.&.&.&.&.1 < 9 * 4 7 7 5 7 5 7 0 u u t u % $ o &.&.&.&.&.&.&.&.&.&.&.&.",
"&.&.&.&.&.&.&.&.&.&.&.&.&.&.&.&.9 % < 4 5 4 w e e 4 4 4 o . . . . . . . &.&.&.&.&.&.&.&.&.&.&.&.",
"&.&.&.&.&.&.&.&.&.&.&.&.&.&.1 1 9 < 4 4 4 4 w e e 7 7 7 o . . . . . . o &.&.&.&.&.&.&.&.&.&.&.&.",
"&.&.&.&.&.&.&.&.&.&.&.&.< < 1 1 0 &.7 4 7 e e e e 7 . . . . . . . . . o &.&.&.&.&.&.&.&.&.&.&.&.",
"&.&.&.&.&.&.&.&.&.&.&.q 1 1 9 0 &.&.4 4 4 e e e 7 5 . o . . . . . &.&.&.&.&.&.&.&.&.&.&.&.&.&.&.",
"&.&.&.&.&.&.&.&.&.&.&.1 1 < < q &.&.4 4 4 e e e 7 5 o . . . . . . &.&.&.&.&.&.&.&.&.&.&.&.&.&.&.",
"&.&.&.&.&.&.&.&.&.q 1 < &.&.&.&.&.&.&.7 7 7 4 4 7 &.o o . . . . . &.&.&.&.&.&.&.&.&.&.&.&.&.&.&.",
"&.&.&.&.&.&.&.&.&.&.&.&.&.&.&.&.&.&.&.Y Y Y A A &.&.&.&.z i i . &.&.&.&.&.&.&.&.&.&.&.&.&.&.&.&.",
"&.&.&.&.&.&.&.&.&.&.&.&.&.&.&.&.&.&.&.Y P Y D Z &.&.&.&.k i i . &.&.&.&.&.&.&.&.&.&.&.&.&.&.&.&.",
"&.&.&.&.&.&.&.&.&.&.&.&.&.&.&.&.&.&.&.e e e 8 4 &.&.&.&.&.. . &.&.&.&.&.&.&.&.&.&.&.&.&.&.&.&.&.",
"&.&.&.&.&.&.&.&.&.&.&.&.&.&.&.&.&.&.e e e 8 &.&.&.&.&.&.&.. . o &.&.&.&.&.&.&.&.&.&.&.&.&.&.&.&.",
"&.&.&.&.&.&.&.&.&.&.&.&.&.&.&.&.&.&.w w w 7 &.&.&.&.&.&.&.. . . &.&.&.&.&.&.&.&.&.&.&.&.&.&.&.&.",
"&.&.&.&.&.&.&.&.&.&.&.&.&.&.&.&.&.&.7 8 8 8 &.&.&.&.&.&.&.. . . . &.&.&.&.&.&.&.&.&.&.&.&.&.&.&.",
"&.&.&.&.&.&.&.&.&.&.&.&.&.&.&.&.&.&.&.&.&.&.&.&.&.&.&.&.&.&.&.&.&.&.&.&.&.&.&.&.&.&.&.&.&.&.&.&."
};