/* XPM */
static char *result[] = {
/* columns rows colors chars-per-pixel */
"48 48 103 2 ",
"   c #120B1B",
".  c #131313",
"X  c #1B1213",
"o  c #1B1B1A",
"O  c #251115",
"+  c #2C1316",
"@  c #2D1519",
"#  c #23181E",
"$  c #3C1316",
"%  c #371C1E",
"&  c #20201F",
"*  c #322A1D",
"=  c #171724",
"-  c #1E1621",
";  c #1A1728",
":  c #17182D",
">  c #19192C",
",  c #151831",
"<  c #371F21",
"1  c #381E21",
"2  c #381629",
"3  c #301A29",
"4  c #262626",
"5  c #292524",
"6  c #2C2A23",
"7  c #272728",
"8  c #2A2A2A",
"9  c #352223",
"0  c #3A2425",
"q  c #3A292A",
"w  c #353535",
"e  c #3C3C3B",
"r  c #461D25",
"t  c #4B1D23",
"y  c #4E1D28",
"u  c #551B24",
"i  c #591A24",
"p  c #631A24",
"a  c #6A1A24",
"s  c #6F1D28",
"d  c #731C27",
"f  c #741C28",
"g  c #7D1E2A",
"h  c #422227",
"j  c #4A2125",
"k  c #4E242B",
"l  c #512027",
"z  c #54232B",
"x  c #5C242B",
"c  c #4B2D30",
"v  c #6F2F2C",
"b  c #7C252F",
"n  c #73282F",
"m  c #644A17",
"M  c #474033",
"N  c #7F5520",
"B  c #821E27",
"V  c #881D27",
"C  c #851E29",
"Z  c #891D2A",
"A  c #951E2A",
"S  c #8C212C",
"D  c #97212B",
"F  c #99212C",
"G  c #A4212D",
"H  c #BC262F",
"J  c #A62231",
"K  c #A82131",
"L  c #B42332",
"P  c #BE2632",
"I  c #A93833",
"U  c #C4232F",
"Y  c #C32331",
"T  c #884737",
"R  c #837034",
"E  c #A76F26",
"W  c #AB674E",
"Q  c #C64642",
"!  c #BC8021",
"~  c #F8A31E",
"^  c #DA9428",
"/  c #FBC926",
"(  c #FEC62C",
")  c #EDC13A",
"_  c #F0C03C",
"`  c #BF8664",
"'  c #BF8F6D",
"]  c #CEAF58",
"[  c #E4B94B",
"{  c #E59A67",
"}  c #E49C6C",
"|  c #E8A979",
" . c #7A8499",
".. c #91A1BB",
"X. c #BCA3A7",
"o. c #CDAD8D",
"O. c #D1AB8E",
"+. c #EBB284",
"@. c #EFCB9E",
"#. c #F6C89E",
"$. c #F3C9A1",
"%. c #DCC9C5",
"&. c None",
/* pixels */
"&.&.&.&.&.&.&.&.&.&.&.&.[ [ ( &.&.&.&.&.&.&.&.&.&.&.&.&.&.&.&.&.&.&.&.&.&.&.&.&.&.&.&.&.&.&.&.&.",
"&.&.&.&.&.&.&.&.&.&.&.&.] ] [ &.&.&.&.&.&.&.&.&.&.&.&.&.&.&.&.&.&.&.&.&.&.&.&.&.&.&.&.&.&.&.&.&.",
"&.&.&.&.&.&.&.&.&.&.&.) &.&.&.&.&.&.&.&.&.&.&.&.&.&.&.&.&.&.&.&.&.&.&.&.&.&.&.&.&.&.&.&.&.&.&.&.",
"&.&.&.&.&.&.&.&.&.&.&._ &.&.&.&.e * T ^ ^ 5 . &.&.&.&.&.&.&.&.&.&.&.&.&.&.&.&.&.&.&.&.&.&.&.&.&.",
"&.&.&.&.&.&.&.&.&.&.&.) R R e e 6 ! E 4 5 5 4 . o &.&.&.&.&.&.&.&.&.&.&.&.&.&.&.&.&.&.&.&.&.&.&.",
"&.&.&.&.&.&.&.&.&.&.&.) R R e e 4 ! E 4 5 5 4 . 4 &.&.&.&.&.&.&.&.&.&.&.&.&.&.&.&.&.&.&.&.&.&.&.",
"&.&.&.&.&.&.&.&.&.&.&.&.[ [ / / ~ m 4 h h H U V V b &.&.&.&.&.&.&.&.&.&.&.&.&.&.&.&.&.&.&.&.&.&.",
"&.&.&.&.&.&.&.&.&.&.&.&.&.&.M M * * 6 u i i p u i i &.&.&.&.&.&.&.&.&.&.&.&.&.&.&.&.&.&.&.&.&.&.",
"&.&.&.&.&.&.&.&.&.&.&.&.&.&.k k t t u a p K J g g g &.&.&.&.&.&.&.&.&.&.&.&.&.&.&.&.&.&.&.&.&.&.",
"&.&.&.&.&.&.&.&.&.&.&.&.&.&.u u u u u a a Y Y Z Z V Z Z &.&.&.&.&.&.&.&.&.&.&.&.&.&.&.&.&.&.&.&.",
"&.&.&.&.&.&.&.&.&.&.&.&.&.&.u #.T %.X.i i i u i u u u u &.&.&.&.&.&.&.&.&.&.&.&.&.&.&.&.&.&.&.&.",
"&.&.&.&.&.&.&.&.&.&.&.&.&.&.i Y $.| W a a Y Y Y L Z Z Z Z &.&.&.&.&.&.&.&.&.&.&.&.&.&.&.&.&.&.&.",
"&.&.&.&.&.&.&.&.&.&.&.&.&.&.&.Y Q I v 9 9 j &.&.&.&.&.&.&.&.&.&.&.&.&.&.&.&.&.&.&.&.&.&.&.&.&.&.",
"&.&.&.&.&.&.&.&.&.&.&.&.&.&.&.U G g l 7 4 4 &.&.&.&.&.&.&.&.&.&.&.&.&.&.&.&.&.&.&.&.&.&.&.&.&.&.",
"&.&.&.&.&.&.&.&.&.&.&.&.&.&.&.Y G B l 4 4 4 &.&.&.&.&.&.&.&.&.&.&.&.&.&.&.&.&.&.&.&.&.&.&.&.&.&.",
"&.&.&.&.&.&.&.&.&.&.&.&.&.&.&.J n z 0 4 4 4 @ Z A Y Y Y Y &.&.&.&.&.&.&.&.&.&.&.&.&.&.&.&.&.&.&.",
"&.&.&.&.&.&.&.&.&.&.&.&.&.&.u i e 8 7 4 & . Z V A Y Y Y Y Y &.&.&.&.&.&.&.&.&.&.&.&.&.&.&.&.&.&.",
"&.&.&.&.&.&.&.&.&.&.&.z i i i e 7 7 4 4 & . i Z Z Z Y U U Y A &.&.&.&.&.&.&.&.&.&.&.&.&.&.&.&.&.",
"&.&.&.&.&.&.&.&.&.&.u u i i u u i u u t t . . u p Z Z Z Z Z Z &.&.&.&.&.&.&.&.&.&.&.&.&.&.&.&.&.",
"&.&.&.&.&.&.&.&.&.&.u X g S Y Y V V Z g g u .   O i i i i i &.&.&.&.&.&.&.&.&.&.&.&.&.&.&.&.&.&.",
"&.&.&.&.&.&.&.&.&.&.z X B B U Y V Z V g g u . . X y y u u z &.&.&.&.&.&.&.&.&.&.&.&.&.&.&.&.&.&.",
"&.&.&.&.&.&.&.&.&.&.&.o B V U U S Z Z g C u . . . . 4 4 e &.&.&.&.&.&.&.&.&.&.&.&.&.&.&.&.&.&.&.",
"&.&.&.&.&.&.&.&.&.&.&.z A A U U C Z Z B g i . . . X S V Z &.&.&.&.&.&.&.&.&.&.&.&.&.&.&.&.&.&.&.",
"&.&.&.&.&.&.&.&.&.&.&.x i i i i u u i t t . . . + Z Y Y Y &.&.&.&.&.&.&.&.&.&.&.&.&.&.&.&.&.&.&.",
"&.&.&.&.&.&.&.&.&.&.&.z i i i i i i i t t . . . + Z P Y P &.&.&.&.&.&.&.&.&.&.&.&.&.&.&.&.&.&.&.",
"&.&.&.&.&.&.&.&.&.&.&.x c c e 5 5 5 #     : : . + Z Y Y Y &.&.&.&.&.&.&.&.&.&.&.&.&.&.&.&.&.&.&.",
"&.&.&.&.&.&.&.&.&.&.- y k l k h t t r 2 2 : , ; - $ A A &.&.&.&.&.&.&.&.&.&.&.&.&.&.&.&.&.&.&.&.",
"&.&.&.&.&.&.&.&.&.&.@ u f f S C s a p y y 3 > > ; X x v &.&.&.&.&.&.&.&.&.&.&.&.&.&.&.&.&.&.&.&.",
"&.&.&.&.&.&.&.&.&.&.u u F A U Y V Z f u i u , > ; . 4 7 &.&.&.&.&.&.&.&.&.&.&.&.&.&.&.&.&.&.&.&.",
"&.&.&.&.&.&.&.&.&.u P a i u p i u i i i i Z .... .. 4 4 &.&.&.&.&.&.&.&.&.&.&.&.&.&.&.&.&.&.&.&.",
"&.&.&.&.&.&.&.&.&.u P p A F Y Y Z Z f p p Z i { { } $.#.&.&.&.&.&.&.&.&.&.&.&.&.&.&.&.&.&.&.&.&.",
"&.&.&.&.&.&.&.&.&.i S p g g S S s s a i i d u } } +.$.$.&.&.&.&.&.&.&.&.&.&.&.&.&.&.&.&.&.&.&.&.",
"&.&.&.&.&.&.&.&.&.z z t u u u i u u u j j t j ` ' o.O.O.% &.&.&.&.&.&.&.&.&.&.&.&.&.&.&.&.&.&.&.",
"&.&.&.&.&.&.&.&.&.z z t u t u i u u u j j t j ` ' o.O.O.9 &.&.&.&.&.&.&.&.&.&.&.&.&.&.&.&.&.&.&.",
"&.&.&.&.&.&.&.&.&.&.&.o @ % u u u u 0 7 5 4 4 4 7 4 9 * 9 % &.&.&.&.&.&.&.&.&.&.&.&.&.&.&.&.&.&.",
"&.&.&.&.&.&.&.&.&.&.&.o . . . . . . o 7 4 4 e e w 7 5 5 < % 9 &.&.&.&.&.&.&.&.&.&.&.&.&.&.&.&.&.",
"&.&.&.&.&.&.&.&.&.&.&.o . . . . . . o 7 7 7 e e w 7 7 4 4 < 9 < 0 &.&.&.&.&.&.&.&.&.&.&.&.&.&.&.",
"&.&.&.&.&.&.&.&.&.&.&.o . . . . . . . . . 7 e e e e 4 4 4 &.0 < 1 < 9 &.&.&.&.&.&.&.&.&.&.&.&.&.",
"&.&.&.&.&.&.&.&.&.&.&.&.&.&.. . . . . o . 8 8 e e e 7 4 4 &.&.0 < 1 1 0 &.&.&.&.&.&.&.&.&.&.&.&.",
"&.&.&.&.&.&.&.&.&.&.&.&.&.&.. . . . . . . 7 7 c e e 4 4 4 &.&.q < < 1 1 &.&.&.&.&.&.&.&.&.&.&.&.",
"&.&.&.&.&.&.&.&.&.&.&.&.&.&.. . . . . o o &.7 7 4 7 7 7 &.&.&.&.&.&.&.< 1 q &.&.&.&.&.&.&.&.&.&.",
"&.&.&.&.&.&.&.&.&.&.&.&.&.&.&.. i l z &.&.&.&.Z A Y Y P &.&.&.&.&.&.&.&.&.&.&.&.&.&.&.&.&.&.&.&.",
"&.&.&.&.&.&.&.&.&.&.&.&.&.&.&.. i i z &.&.&.&.Z A Y Y Y &.&.&.&.&.&.&.&.&.&.&.&.&.&.&.&.&.&.&.&.",
"&.&.&.&.&.&.&.&.&.&.&.&.&.&.&.&.. . &.&.&.&.&.4 8 e e e &.&.&.&.&.&.&.&.&.&.&.&.&.&.&.&.&.&.&.&.",
"&.&.&.&.&.&.&.&.&.&.&.&.&.&.&.o . . &.&.&.&.&.&.&.8 c e e &.&.&.&.&.&.&.&.&.&.&.&.&.&.&.&.&.&.&.",
"&.&.&.&.&.&.&.&.&.&.&.&.&.&.&.. . . &.&.&.&.&.&.&.8 w w w &.&.&.&.&.&.&.&.&.&.&.&.&.&.&.&.&.&.&.",
"&.&.&.&.&.&.&.&.&.&.&.&.&.&.. . o . &.&.&.&.&.&.&.8 8 8 8 &.&.&.&.&.&.&.&.&.&.&.&.&.&.&.&.&.&.&.",
"&.&.&.&.&.&.&.&.&.&.&.&.&.&.&.&.&.&.&.&.&.&.&.&.&.&.&.&.&.&.&.&.&.&.&.&.&.&.&.&.&.&.&.&.&.&.&.&."
};